G75*
%MOIN*%
%OFA0B0*%
%FSLAX25Y25*%
%IPPOS*%
%LPD*%
%AMOC8*
5,1,8,0,0,1.08239X$1,22.5*
%
%ADD10C,0.00400*%
D10*
X0322971Y0214133D02*
X0326440Y0214133D01*
X0322971Y0217603D01*
X0322971Y0218470D01*
X0323838Y0219338D01*
X0325573Y0219338D01*
X0326440Y0218470D01*
X0328127Y0218470D02*
X0328127Y0217603D01*
X0328995Y0216735D01*
X0328127Y0215868D01*
X0328127Y0215000D01*
X0328995Y0214133D01*
X0330729Y0214133D01*
X0331597Y0215000D01*
X0333284Y0216735D02*
X0334151Y0215868D01*
X0336753Y0215868D01*
X0338440Y0215868D02*
X0338440Y0215000D01*
X0339307Y0214133D01*
X0341042Y0214133D01*
X0341910Y0215000D01*
X0343596Y0214133D02*
X0347066Y0214133D01*
X0347066Y0219338D01*
X0343596Y0219338D01*
X0341910Y0218470D02*
X0341042Y0219338D01*
X0339307Y0219338D01*
X0338440Y0218470D01*
X0336753Y0219338D02*
X0334151Y0219338D01*
X0333284Y0218470D01*
X0333284Y0216735D01*
X0331597Y0218470D02*
X0330729Y0219338D01*
X0328995Y0219338D01*
X0328127Y0218470D01*
X0328995Y0216735D02*
X0329862Y0216735D01*
X0336753Y0214133D02*
X0336753Y0219338D01*
X0339307Y0216735D02*
X0338440Y0215868D01*
X0339307Y0216735D02*
X0341042Y0216735D01*
X0341910Y0217603D01*
X0341910Y0218470D01*
X0345331Y0216735D02*
X0347066Y0216735D01*
X0348753Y0219338D02*
X0352222Y0214133D01*
X0353909Y0214133D02*
X0357379Y0214133D01*
X0359066Y0214133D02*
X0362535Y0214133D01*
X0359066Y0217603D01*
X0359066Y0218470D01*
X0359933Y0219338D01*
X0361668Y0219338D01*
X0362535Y0218470D01*
X0364222Y0218470D02*
X0365089Y0219338D01*
X0367692Y0219338D01*
X0367692Y0214133D01*
X0365089Y0214133D01*
X0364222Y0215000D01*
X0364222Y0218470D01*
X0369378Y0219338D02*
X0369378Y0214133D01*
X0372848Y0214133D02*
X0372848Y0219338D01*
X0371113Y0217603D01*
X0369378Y0219338D01*
X0374535Y0217603D02*
X0374535Y0214133D01*
X0374535Y0216735D02*
X0378004Y0216735D01*
X0378004Y0217603D02*
X0376270Y0219338D01*
X0374535Y0217603D01*
X0378004Y0217603D02*
X0378004Y0214133D01*
X0379691Y0215000D02*
X0380559Y0214133D01*
X0382293Y0214133D01*
X0383161Y0215000D01*
X0382293Y0216735D02*
X0380559Y0216735D01*
X0379691Y0215868D01*
X0379691Y0215000D01*
X0382293Y0216735D02*
X0383161Y0217603D01*
X0383161Y0218470D01*
X0382293Y0219338D01*
X0380559Y0219338D01*
X0379691Y0218470D01*
X0378864Y0224133D02*
X0378864Y0229338D01*
X0380551Y0227603D02*
X0383153Y0227603D01*
X0384020Y0226735D01*
X0384020Y0225000D01*
X0383153Y0224133D01*
X0380551Y0224133D01*
X0378864Y0225868D02*
X0376262Y0227603D01*
X0378864Y0225868D02*
X0376262Y0224133D01*
X0369410Y0226735D02*
X0365941Y0226735D01*
X0359098Y0225868D02*
X0357363Y0224133D01*
X0355660Y0225000D02*
X0354793Y0224133D01*
X0352190Y0224133D01*
X0350504Y0224133D02*
X0348769Y0225868D01*
X0348769Y0227603D01*
X0350504Y0229338D01*
X0352190Y0227603D02*
X0354793Y0227603D01*
X0355660Y0226735D01*
X0355660Y0225000D01*
X0359098Y0225868D02*
X0359098Y0227603D01*
X0357363Y0229338D01*
X0355644Y0219338D02*
X0355644Y0214133D01*
X0357379Y0217603D02*
X0355644Y0219338D01*
X0341910Y0224133D02*
X0338440Y0227603D01*
X0338440Y0228470D01*
X0339307Y0229338D01*
X0341042Y0229338D01*
X0341910Y0228470D01*
X0336753Y0228470D02*
X0336753Y0225000D01*
X0333284Y0228470D01*
X0333284Y0225000D01*
X0334151Y0224133D01*
X0335886Y0224133D01*
X0336753Y0225000D01*
X0338440Y0224133D02*
X0341910Y0224133D01*
X0336753Y0228470D02*
X0335886Y0229338D01*
X0334151Y0229338D01*
X0333284Y0228470D01*
X0331597Y0228470D02*
X0330729Y0229338D01*
X0328995Y0229338D01*
X0328127Y0228470D01*
X0328127Y0227603D01*
X0331597Y0224133D01*
X0328127Y0224133D01*
X0326440Y0224133D02*
X0322971Y0227603D01*
X0322971Y0228470D01*
X0323838Y0229338D01*
X0325573Y0229338D01*
X0326440Y0228470D01*
X0326440Y0224133D02*
X0322971Y0224133D01*
X0316128Y0224133D02*
X0316128Y0229338D01*
X0313525Y0229338D01*
X0312658Y0228470D01*
X0312658Y0226735D01*
X0313525Y0225868D01*
X0316128Y0225868D01*
X0310971Y0226735D02*
X0310104Y0227603D01*
X0308369Y0227603D01*
X0307502Y0226735D01*
X0307502Y0224133D01*
X0305815Y0225000D02*
X0304947Y0224133D01*
X0303213Y0224133D01*
X0302345Y0225000D01*
X0302345Y0226735D01*
X0303213Y0227603D01*
X0304947Y0227603D01*
X0305815Y0226735D01*
X0305815Y0225000D01*
X0300658Y0225000D02*
X0299791Y0224133D01*
X0298056Y0224133D01*
X0297189Y0225868D02*
X0300658Y0225868D01*
X0300658Y0226735D02*
X0299791Y0227603D01*
X0298056Y0227603D01*
X0297189Y0226735D01*
X0297189Y0225868D01*
X0295502Y0224133D02*
X0295502Y0227603D01*
X0292900Y0227603D01*
X0292032Y0226735D01*
X0292032Y0224133D01*
X0290346Y0224133D02*
X0288611Y0224133D01*
X0289478Y0224133D02*
X0289478Y0227603D01*
X0290346Y0227603D01*
X0289478Y0229338D02*
X0289478Y0230205D01*
X0286908Y0227603D02*
X0283438Y0224133D01*
X0286908Y0224133D02*
X0283438Y0227603D01*
X0276595Y0227603D02*
X0275728Y0226735D01*
X0273993Y0226735D01*
X0273126Y0225868D01*
X0273126Y0225000D01*
X0273993Y0224133D01*
X0275728Y0224133D01*
X0276595Y0225000D01*
X0276595Y0227603D02*
X0276595Y0228470D01*
X0275728Y0229338D01*
X0273993Y0229338D01*
X0273126Y0228470D01*
X0271439Y0227603D02*
X0270571Y0227603D01*
X0270571Y0224133D01*
X0269704Y0224133D02*
X0271439Y0224133D01*
X0268001Y0224133D02*
X0265399Y0224133D01*
X0264532Y0225000D01*
X0265399Y0225868D01*
X0267134Y0225868D01*
X0268001Y0226735D01*
X0267134Y0227603D01*
X0264532Y0227603D01*
X0262845Y0227603D02*
X0261110Y0227603D01*
X0261977Y0228470D02*
X0261977Y0225000D01*
X0261110Y0224133D01*
X0259407Y0225000D02*
X0259407Y0226735D01*
X0258540Y0227603D01*
X0256805Y0227603D01*
X0255938Y0226735D01*
X0255938Y0225868D01*
X0259407Y0225868D01*
X0259407Y0225000D02*
X0258540Y0224133D01*
X0256805Y0224133D01*
X0254251Y0224133D02*
X0254251Y0227603D01*
X0253383Y0227603D01*
X0252516Y0226735D01*
X0251649Y0227603D01*
X0250781Y0226735D01*
X0250781Y0224133D01*
X0249094Y0224133D02*
X0247360Y0224133D01*
X0248227Y0224133D02*
X0248227Y0227603D01*
X0249094Y0227603D01*
X0248227Y0229338D02*
X0248227Y0230205D01*
X0240500Y0228470D02*
X0240500Y0227603D01*
X0237031Y0224133D01*
X0237031Y0225868D02*
X0238766Y0224133D01*
X0239633Y0224133D01*
X0240500Y0225000D01*
X0240500Y0225868D01*
X0238766Y0227603D01*
X0238766Y0228470D01*
X0239633Y0229338D01*
X0240500Y0228470D01*
X0230188Y0227603D02*
X0230188Y0224133D01*
X0230188Y0226735D02*
X0226718Y0226735D01*
X0226718Y0227603D02*
X0226718Y0224133D01*
X0225031Y0225000D02*
X0224164Y0224133D01*
X0221562Y0224133D01*
X0221562Y0227603D01*
X0219875Y0227603D02*
X0218140Y0227603D01*
X0219008Y0228470D02*
X0219008Y0225000D01*
X0218140Y0224133D01*
X0216437Y0225000D02*
X0215570Y0224133D01*
X0213835Y0224133D01*
X0212968Y0225000D01*
X0212968Y0226735D01*
X0213835Y0227603D01*
X0215570Y0227603D01*
X0216437Y0226735D01*
X0216437Y0225000D01*
X0211281Y0224133D02*
X0211281Y0227603D01*
X0210414Y0227603D01*
X0209546Y0226735D01*
X0208679Y0227603D01*
X0207811Y0226735D01*
X0207811Y0224133D01*
X0209546Y0224133D02*
X0209546Y0226735D01*
X0206125Y0225000D02*
X0205257Y0225868D01*
X0202655Y0225868D01*
X0202655Y0226735D02*
X0202655Y0224133D01*
X0205257Y0224133D01*
X0206125Y0225000D01*
X0205257Y0227603D02*
X0203522Y0227603D01*
X0202655Y0226735D01*
X0200968Y0227603D02*
X0197498Y0227603D01*
X0200968Y0224133D01*
X0197498Y0224133D01*
X0195812Y0224133D02*
X0194077Y0224133D01*
X0194944Y0224133D02*
X0194944Y0227603D01*
X0195812Y0227603D01*
X0194944Y0229338D02*
X0194944Y0230205D01*
X0191507Y0227603D02*
X0192374Y0226735D01*
X0192374Y0225000D01*
X0191507Y0224133D01*
X0189772Y0224133D01*
X0188904Y0225000D01*
X0188904Y0226735D01*
X0189772Y0227603D01*
X0191507Y0227603D01*
X0187218Y0227603D02*
X0184616Y0227603D01*
X0183748Y0226735D01*
X0183748Y0224133D01*
X0182061Y0225000D02*
X0181194Y0224133D01*
X0179459Y0224133D01*
X0178592Y0225868D02*
X0182061Y0225868D01*
X0182061Y0226735D02*
X0181194Y0227603D01*
X0179459Y0227603D01*
X0178592Y0226735D01*
X0178592Y0225868D01*
X0182061Y0225000D02*
X0182061Y0226735D01*
X0187218Y0227603D02*
X0187218Y0224133D01*
X0171749Y0224133D02*
X0169146Y0224133D01*
X0168279Y0225000D01*
X0169146Y0225868D01*
X0170881Y0225868D01*
X0171749Y0226735D01*
X0170881Y0227603D01*
X0168279Y0227603D01*
X0165725Y0227603D02*
X0163990Y0227603D01*
X0163123Y0226735D01*
X0163123Y0224133D01*
X0165725Y0224133D01*
X0166592Y0225000D01*
X0165725Y0225868D01*
X0163123Y0225868D01*
X0161436Y0226735D02*
X0160568Y0227603D01*
X0157966Y0227603D01*
X0157966Y0223266D01*
X0158834Y0222398D01*
X0159701Y0222398D01*
X0160568Y0224133D02*
X0157966Y0224133D01*
X0156279Y0224133D02*
X0154545Y0224133D01*
X0155412Y0224133D02*
X0155412Y0229338D01*
X0156279Y0229338D01*
X0161436Y0226735D02*
X0161436Y0225000D01*
X0160568Y0224133D01*
X0147685Y0226735D02*
X0144216Y0226735D01*
X0137373Y0224133D02*
X0137373Y0229338D01*
X0135638Y0227603D01*
X0133903Y0229338D01*
X0133903Y0224133D01*
X0132216Y0225000D02*
X0131349Y0224133D01*
X0128747Y0224133D01*
X0128747Y0227603D01*
X0127060Y0227603D02*
X0127060Y0224133D01*
X0127060Y0225868D02*
X0125325Y0227603D01*
X0124458Y0227603D01*
X0121895Y0227603D02*
X0120161Y0227603D01*
X0119293Y0226735D01*
X0119293Y0224133D01*
X0121895Y0224133D01*
X0122763Y0225000D01*
X0121895Y0225868D01*
X0119293Y0225868D01*
X0117606Y0224133D02*
X0115872Y0224133D01*
X0116739Y0224133D02*
X0116739Y0229338D01*
X0117606Y0229338D01*
X0114169Y0227603D02*
X0112434Y0227603D01*
X0113301Y0228470D02*
X0113301Y0225000D01*
X0112434Y0224133D01*
X0110731Y0225000D02*
X0109864Y0224133D01*
X0108129Y0224133D01*
X0107262Y0225000D01*
X0107262Y0226735D01*
X0108129Y0227603D01*
X0109864Y0227603D01*
X0110731Y0226735D01*
X0110731Y0225000D01*
X0100418Y0226735D02*
X0096949Y0226735D01*
X0090106Y0227603D02*
X0089238Y0226735D01*
X0087503Y0226735D01*
X0086636Y0225868D01*
X0086636Y0225000D01*
X0087503Y0224133D01*
X0089238Y0224133D01*
X0090106Y0225000D01*
X0090106Y0227603D02*
X0090106Y0228470D01*
X0089238Y0229338D01*
X0087503Y0229338D01*
X0086636Y0228470D01*
X0084949Y0227603D02*
X0084949Y0225000D01*
X0084082Y0224133D01*
X0083214Y0225000D01*
X0082347Y0224133D01*
X0081480Y0225000D01*
X0081480Y0227603D01*
X0079793Y0227603D02*
X0078925Y0227603D01*
X0078925Y0224133D01*
X0078058Y0224133D02*
X0079793Y0224133D01*
X0075488Y0225000D02*
X0074620Y0224133D01*
X0075488Y0225000D02*
X0075488Y0228470D01*
X0076355Y0227603D02*
X0074620Y0227603D01*
X0072918Y0227603D02*
X0069448Y0227603D01*
X0072918Y0224133D01*
X0069448Y0224133D01*
X0067761Y0225000D02*
X0066894Y0224133D01*
X0065159Y0224133D01*
X0064292Y0225868D02*
X0067761Y0225868D01*
X0067761Y0226735D02*
X0066894Y0227603D01*
X0065159Y0227603D01*
X0064292Y0226735D01*
X0064292Y0225868D01*
X0062605Y0225868D02*
X0060870Y0227603D01*
X0060003Y0227603D01*
X0058308Y0229338D02*
X0057440Y0229338D01*
X0057440Y0224133D01*
X0056573Y0224133D02*
X0058308Y0224133D01*
X0054870Y0225000D02*
X0054003Y0225868D01*
X0051401Y0225868D01*
X0051401Y0226735D02*
X0051401Y0224133D01*
X0054003Y0224133D01*
X0054870Y0225000D01*
X0054003Y0227603D02*
X0052268Y0227603D01*
X0051401Y0226735D01*
X0049714Y0227603D02*
X0047112Y0227603D01*
X0046244Y0226735D01*
X0046244Y0224133D01*
X0044557Y0225000D02*
X0043690Y0224133D01*
X0041088Y0224133D01*
X0041088Y0229338D01*
X0041088Y0227603D02*
X0043690Y0227603D01*
X0044557Y0226735D01*
X0044557Y0225000D01*
X0049714Y0224133D02*
X0049714Y0227603D01*
X0062605Y0227603D02*
X0062605Y0224133D01*
X0067761Y0225000D02*
X0067761Y0226735D01*
X0078925Y0229338D02*
X0078925Y0230205D01*
X0132216Y0227603D02*
X0132216Y0225000D01*
X0225031Y0225000D02*
X0225031Y0227603D01*
X0226718Y0227603D02*
X0228453Y0229338D01*
X0230188Y0227603D01*
X0252516Y0226735D02*
X0252516Y0224133D01*
X0270571Y0229338D02*
X0270571Y0230205D01*
X0300658Y0226735D02*
X0300658Y0225000D01*
X0310971Y0224133D02*
X0310971Y0229338D01*
X0385707Y0226735D02*
X0386574Y0227603D01*
X0388309Y0227603D01*
X0389177Y0226735D01*
X0389177Y0225000D01*
X0388309Y0224133D01*
X0386574Y0224133D01*
X0385707Y0225000D01*
X0385707Y0226735D01*
X0390879Y0224133D02*
X0392614Y0224133D01*
X0391747Y0224133D02*
X0391747Y0229338D01*
X0392614Y0229338D01*
X0394301Y0228470D02*
X0395168Y0229338D01*
X0396903Y0229338D01*
X0397771Y0228470D01*
X0397771Y0225000D01*
X0396903Y0224133D01*
X0395168Y0224133D01*
X0394301Y0225000D01*
X0392606Y0219338D02*
X0390871Y0219338D01*
X0390004Y0218470D01*
X0393474Y0215000D01*
X0392606Y0214133D01*
X0390871Y0214133D01*
X0390004Y0215000D01*
X0390004Y0218470D01*
X0392606Y0219338D02*
X0393474Y0218470D01*
X0393474Y0215000D01*
X0395160Y0215000D02*
X0395160Y0218470D01*
X0398630Y0215000D01*
X0397763Y0214133D01*
X0396028Y0214133D01*
X0395160Y0215000D01*
X0398630Y0215000D02*
X0398630Y0218470D01*
X0397763Y0219338D01*
X0396028Y0219338D01*
X0395160Y0218470D01*
X0400341Y0215000D02*
X0400341Y0214133D01*
X0401208Y0214133D01*
X0401208Y0215000D01*
X0400341Y0215000D01*
X0402895Y0214133D02*
X0406365Y0214133D01*
X0404630Y0214133D02*
X0404630Y0219338D01*
X0406365Y0217603D01*
X0408051Y0217603D02*
X0409786Y0214133D01*
X0411521Y0217603D01*
X0418364Y0217603D02*
X0420966Y0217603D01*
X0421834Y0216735D01*
X0421834Y0215000D01*
X0420966Y0214133D01*
X0418364Y0214133D01*
X0418364Y0219338D01*
X0418372Y0224133D02*
X0420974Y0225868D01*
X0418372Y0227603D01*
X0416677Y0227603D02*
X0415810Y0227603D01*
X0415810Y0224133D01*
X0416677Y0224133D02*
X0414943Y0224133D01*
X0413240Y0224133D02*
X0413240Y0227603D01*
X0410638Y0227603D01*
X0409770Y0226735D01*
X0409770Y0224133D01*
X0408083Y0225000D02*
X0407216Y0224133D01*
X0404614Y0224133D01*
X0404614Y0223266D02*
X0404614Y0227603D01*
X0407216Y0227603D01*
X0408083Y0226735D01*
X0408083Y0225000D01*
X0406349Y0222398D02*
X0405481Y0222398D01*
X0404614Y0223266D01*
X0415810Y0229338D02*
X0415810Y0230205D01*
X0420974Y0229338D02*
X0420974Y0224133D01*
X0422661Y0224133D02*
X0422661Y0226735D01*
X0423529Y0227603D01*
X0425263Y0227603D01*
X0425263Y0225868D02*
X0422661Y0225868D01*
X0422661Y0224133D02*
X0425263Y0224133D01*
X0426131Y0225000D01*
X0425263Y0225868D01*
X0427818Y0225868D02*
X0431287Y0225868D01*
X0431287Y0226735D02*
X0430420Y0227603D01*
X0428685Y0227603D01*
X0427818Y0226735D01*
X0427818Y0225868D01*
X0428685Y0224133D02*
X0430420Y0224133D01*
X0431287Y0225000D01*
X0431287Y0226735D01*
X0432974Y0226735D02*
X0433841Y0227603D01*
X0436444Y0227603D01*
X0436444Y0222398D01*
X0436444Y0224133D02*
X0433841Y0224133D01*
X0432974Y0225000D01*
X0432974Y0226735D01*
X0438130Y0225868D02*
X0438130Y0225000D01*
X0438998Y0224133D01*
X0440733Y0224133D01*
X0441600Y0225000D01*
X0440733Y0226735D02*
X0438998Y0226735D01*
X0438130Y0225868D01*
X0438130Y0228470D02*
X0438998Y0229338D01*
X0440733Y0229338D01*
X0441600Y0228470D01*
X0441600Y0227603D01*
X0440733Y0226735D01*
X0441600Y0219338D02*
X0438998Y0219338D01*
X0438130Y0218470D01*
X0438130Y0217603D01*
X0438998Y0216735D01*
X0441600Y0216735D01*
X0441600Y0214133D02*
X0438998Y0214133D01*
X0438130Y0215000D01*
X0438130Y0215868D01*
X0438998Y0216735D01*
X0436444Y0216735D02*
X0436444Y0215000D01*
X0435576Y0214133D01*
X0433841Y0214133D01*
X0432974Y0215000D01*
X0432974Y0216735D01*
X0433841Y0217603D01*
X0435576Y0217603D01*
X0436444Y0216735D01*
X0431287Y0215000D02*
X0430420Y0215868D01*
X0427818Y0215868D01*
X0427818Y0216735D02*
X0427818Y0214133D01*
X0430420Y0214133D01*
X0431287Y0215000D01*
X0430420Y0217603D02*
X0428685Y0217603D01*
X0427818Y0216735D01*
X0426131Y0215868D02*
X0424396Y0217603D01*
X0423529Y0217603D01*
X0426131Y0217603D02*
X0426131Y0214133D01*
X0441600Y0214133D02*
X0441600Y0219338D01*
M02*
