G75*
%MOIN*%
%OFA0B0*%
%FSLAX25Y25*%
%IPPOS*%
%LPD*%
%AMOC8*
5,1,8,0,0,1.08239X$1,22.5*
%
%ADD10C,0.11824*%
%ADD11C,0.08400*%
%ADD12C,0.17800*%
%ADD13C,0.06737*%
%ADD14R,0.06737X0.06737*%
%ADD15C,0.06343*%
%ADD16C,0.06737*%
%ADD17C,0.06400*%
%ADD18R,0.06343X0.06343*%
D10*
X0019800Y0063933D03*
X0089300Y0161433D03*
X0149300Y0161433D03*
X0019800Y0243933D03*
X0463800Y0243933D03*
X0463800Y0063933D03*
D11*
X0464800Y0206933D03*
X0424800Y0206933D03*
X0261800Y0243933D03*
X0251800Y0243933D03*
X0241800Y0243933D03*
X0231800Y0243933D03*
X0221800Y0243933D03*
X0056800Y0143933D03*
X0056800Y0103933D03*
D12*
X0423863Y0097933D03*
X0447485Y0097933D03*
X0435674Y0116437D03*
D13*
X0377300Y0118933D03*
X0377300Y0108933D03*
X0377300Y0098933D03*
X0377300Y0088933D03*
X0377300Y0078933D03*
X0377300Y0068933D03*
X0317300Y0068933D03*
X0317300Y0078933D03*
X0317300Y0088933D03*
X0317300Y0098933D03*
X0317300Y0108933D03*
X0317300Y0118933D03*
X0317300Y0128933D03*
X0377300Y0128933D03*
X0156800Y0123933D03*
X0156800Y0113933D03*
X0156800Y0103933D03*
X0136800Y0088933D03*
X0126800Y0088933D03*
X0116800Y0088933D03*
X0106800Y0088933D03*
X0081800Y0103933D03*
X0081800Y0113933D03*
X0081800Y0123933D03*
X0081800Y0133933D03*
X0116800Y0138933D03*
X0126800Y0138933D03*
X0156800Y0133933D03*
X0151800Y0183933D03*
X0141800Y0183933D03*
X0131800Y0183933D03*
X0121800Y0183933D03*
X0111800Y0183933D03*
X0111800Y0193933D03*
X0101800Y0193933D03*
X0131800Y0193933D03*
X0141800Y0193933D03*
X0151800Y0193933D03*
X0151800Y0223933D03*
X0141800Y0223933D03*
X0131800Y0223933D03*
X0121800Y0223933D03*
X0111800Y0223933D03*
X0111800Y0233933D03*
X0101800Y0233933D03*
X0131800Y0233933D03*
X0141800Y0233933D03*
X0151800Y0233933D03*
D14*
X0121800Y0233933D03*
X0101800Y0223933D03*
X0121800Y0193933D03*
X0101800Y0183933D03*
X0081800Y0143933D03*
X0156800Y0143933D03*
X0432800Y0171433D03*
X0442800Y0171433D03*
X0452800Y0171433D03*
D15*
X0401800Y0173933D03*
X0391800Y0173933D03*
X0391800Y0163933D03*
X0401800Y0163933D03*
X0401800Y0153933D03*
X0391800Y0153933D03*
X0391800Y0143933D03*
X0401800Y0143933D03*
X0401800Y0133933D03*
X0391800Y0133933D03*
X0391800Y0123933D03*
X0401800Y0123933D03*
X0401800Y0113933D03*
X0391800Y0113933D03*
X0391800Y0103933D03*
X0401800Y0103933D03*
X0391800Y0093933D03*
X0301800Y0103933D03*
X0291800Y0103933D03*
X0291800Y0093933D03*
X0291800Y0113933D03*
X0301800Y0113933D03*
X0301800Y0123933D03*
X0291800Y0123933D03*
X0291800Y0133933D03*
X0301800Y0133933D03*
X0301800Y0143933D03*
X0291800Y0143933D03*
X0291800Y0153933D03*
X0301800Y0153933D03*
X0301800Y0163933D03*
X0291800Y0163933D03*
X0291800Y0173933D03*
X0301800Y0173933D03*
X0301800Y0183933D03*
X0291800Y0183933D03*
X0391800Y0183933D03*
X0401800Y0183933D03*
X0251800Y0063933D03*
X0241800Y0063933D03*
X0231800Y0063933D03*
X0221800Y0063933D03*
X0211800Y0063933D03*
X0201800Y0063933D03*
D16*
X0026800Y0195965D02*
X0026800Y0201902D01*
X0036249Y0203839D02*
X0036249Y0209776D01*
X0057902Y0209776D02*
X0057902Y0203839D01*
D17*
X0031800Y0112870D03*
X0031800Y0104996D03*
D18*
X0301800Y0093933D03*
X0401800Y0093933D03*
M02*
