G75*
%MOIN*%
%OFA0B0*%
%FSLAX25Y25*%
%IPPOS*%
%LPD*%
%AMOC8*
5,1,8,0,0,1.08239X$1,22.5*
%
%ADD10C,0.00400*%
%ADD11C,0.00300*%
%ADD12C,0.00600*%
%ADD13C,0.00800*%
%ADD14C,0.00100*%
%ADD15C,0.00500*%
%ADD16R,0.10000X0.02000*%
%ADD17R,0.03000X0.07500*%
%ADD18C,0.01339*%
%ADD19C,0.00700*%
%ADD20R,0.02000X0.10000*%
%ADD21R,0.07500X0.03000*%
D10*
X0066996Y0064133D02*
X0066996Y0066435D01*
X0067763Y0067202D01*
X0070833Y0067202D01*
X0071600Y0066435D01*
X0071600Y0064133D01*
X0066996Y0064133D01*
X0066996Y0068737D02*
X0066996Y0071806D01*
X0066996Y0073341D02*
X0066996Y0075643D01*
X0067763Y0076410D01*
X0069298Y0076410D01*
X0070065Y0075643D01*
X0070065Y0073341D01*
X0070065Y0074876D02*
X0071600Y0076410D01*
X0070833Y0077945D02*
X0067763Y0081014D01*
X0070833Y0081014D01*
X0071600Y0080247D01*
X0071600Y0078712D01*
X0070833Y0077945D01*
X0067763Y0077945D01*
X0066996Y0078712D01*
X0066996Y0080247D01*
X0067763Y0081014D01*
X0066996Y0082549D02*
X0069298Y0082549D01*
X0068531Y0084083D01*
X0068531Y0084851D01*
X0069298Y0085618D01*
X0070833Y0085618D01*
X0071600Y0084851D01*
X0071600Y0083316D01*
X0070833Y0082549D01*
X0066996Y0082549D02*
X0066996Y0085618D01*
X0067763Y0087153D02*
X0066996Y0087920D01*
X0066996Y0089455D01*
X0067763Y0090222D01*
X0068531Y0090222D01*
X0069298Y0089455D01*
X0070065Y0090222D01*
X0070833Y0090222D01*
X0071600Y0089455D01*
X0071600Y0087920D01*
X0070833Y0087153D01*
X0069298Y0088687D02*
X0069298Y0089455D01*
X0069298Y0091757D02*
X0069298Y0094826D01*
X0066996Y0094059D02*
X0069298Y0091757D01*
X0071600Y0094059D02*
X0066996Y0094059D01*
X0046561Y0099270D02*
X0045793Y0098503D01*
X0046561Y0099270D02*
X0046561Y0100805D01*
X0045793Y0101572D01*
X0045026Y0101572D01*
X0044259Y0100805D01*
X0044259Y0099270D01*
X0043491Y0098503D01*
X0042724Y0098503D01*
X0041957Y0099270D01*
X0041957Y0100805D01*
X0042724Y0101572D01*
X0041957Y0103107D02*
X0041957Y0105409D01*
X0042724Y0106176D01*
X0044259Y0106176D01*
X0045026Y0105409D01*
X0045026Y0103107D01*
X0046561Y0103107D02*
X0041957Y0103107D01*
X0041957Y0107711D02*
X0046561Y0107711D01*
X0045026Y0107711D02*
X0041957Y0110780D01*
X0041957Y0112315D02*
X0041957Y0114617D01*
X0042724Y0115384D01*
X0044259Y0115384D01*
X0045026Y0114617D01*
X0045026Y0112315D01*
X0045026Y0113850D02*
X0046561Y0115384D01*
X0046561Y0112315D02*
X0041957Y0112315D01*
X0044259Y0108478D02*
X0046561Y0110780D01*
X0092763Y0112524D02*
X0095833Y0112524D01*
X0096600Y0113291D01*
X0095833Y0114826D02*
X0096600Y0115593D01*
X0096600Y0117128D01*
X0095833Y0117895D01*
X0094298Y0117895D01*
X0093531Y0117128D01*
X0093531Y0115593D01*
X0094298Y0114826D01*
X0095833Y0114826D01*
X0093531Y0113291D02*
X0093531Y0111757D01*
X0093531Y0110222D02*
X0093531Y0107920D01*
X0094298Y0107153D01*
X0095833Y0107153D01*
X0096600Y0107920D01*
X0096600Y0110222D01*
X0095065Y0105618D02*
X0095065Y0102549D01*
X0094298Y0102549D02*
X0093531Y0103316D01*
X0093531Y0104851D01*
X0094298Y0105618D01*
X0095065Y0105618D01*
X0096600Y0104851D02*
X0096600Y0103316D01*
X0095833Y0102549D01*
X0094298Y0102549D01*
X0094298Y0101014D02*
X0096600Y0101014D01*
X0094298Y0101014D02*
X0093531Y0100247D01*
X0093531Y0097945D01*
X0096600Y0097945D01*
X0096600Y0096410D02*
X0094298Y0096410D01*
X0093531Y0095643D01*
X0093531Y0093341D01*
X0096600Y0093341D01*
X0095833Y0091806D02*
X0094298Y0091806D01*
X0093531Y0091039D01*
X0093531Y0089504D01*
X0094298Y0088737D01*
X0095833Y0088737D01*
X0096600Y0089504D01*
X0096600Y0091039D01*
X0095833Y0091806D01*
X0095833Y0087202D02*
X0096600Y0086435D01*
X0096600Y0084900D01*
X0095833Y0084133D01*
X0092763Y0084133D01*
X0091996Y0084900D01*
X0091996Y0086435D01*
X0092763Y0087202D01*
X0071600Y0073341D02*
X0066996Y0073341D01*
X0069298Y0070272D02*
X0069298Y0068737D01*
X0071600Y0068737D02*
X0066996Y0068737D01*
X0093531Y0119430D02*
X0096600Y0119430D01*
X0095065Y0119430D02*
X0093531Y0120964D01*
X0093531Y0121732D01*
X0093531Y0127870D02*
X0094298Y0128638D01*
X0094298Y0130172D01*
X0095065Y0130940D01*
X0095833Y0130940D01*
X0096600Y0130172D01*
X0096600Y0128638D01*
X0095833Y0127870D01*
X0093531Y0127870D02*
X0092763Y0127870D01*
X0091996Y0128638D01*
X0091996Y0130172D01*
X0092763Y0130940D01*
X0093531Y0132474D02*
X0093531Y0133242D01*
X0096600Y0133242D01*
X0096600Y0134009D02*
X0096600Y0132474D01*
X0095833Y0135544D02*
X0094298Y0135544D01*
X0093531Y0136311D01*
X0093531Y0138613D01*
X0091996Y0138613D02*
X0096600Y0138613D01*
X0096600Y0136311D01*
X0095833Y0135544D01*
X0091996Y0133242D02*
X0091229Y0133242D01*
X0094298Y0140147D02*
X0093531Y0140915D01*
X0093531Y0142449D01*
X0094298Y0143217D01*
X0095065Y0143217D01*
X0095065Y0140147D01*
X0094298Y0140147D02*
X0095833Y0140147D01*
X0096600Y0140915D01*
X0096600Y0142449D01*
X0171996Y0117078D02*
X0171996Y0114776D01*
X0176600Y0114776D01*
X0176600Y0117078D01*
X0175833Y0117846D01*
X0172763Y0117846D01*
X0171996Y0117078D01*
X0172763Y0113242D02*
X0174298Y0113242D01*
X0175065Y0112474D01*
X0175065Y0110172D01*
X0175065Y0111707D02*
X0176600Y0113242D01*
X0176600Y0110172D02*
X0171996Y0110172D01*
X0171996Y0112474D01*
X0172763Y0113242D01*
X0173531Y0108638D02*
X0171996Y0107103D01*
X0173531Y0105568D01*
X0176600Y0105568D01*
X0175833Y0104034D02*
X0172763Y0104034D01*
X0171996Y0103266D01*
X0171996Y0101732D01*
X0172763Y0100964D01*
X0175833Y0100964D01*
X0176600Y0101732D01*
X0176600Y0103266D01*
X0175833Y0104034D01*
X0174298Y0105568D02*
X0174298Y0108638D01*
X0173531Y0108638D02*
X0176600Y0108638D01*
X0175833Y0099430D02*
X0176600Y0098662D01*
X0176600Y0096361D01*
X0171996Y0096361D01*
X0171996Y0098662D01*
X0172763Y0099430D01*
X0173531Y0099430D01*
X0174298Y0098662D01*
X0174298Y0096361D01*
X0174298Y0098662D02*
X0175065Y0099430D01*
X0175833Y0099430D01*
X0177367Y0094826D02*
X0177367Y0091757D01*
X0176600Y0090222D02*
X0176600Y0087153D01*
X0176600Y0088687D02*
X0171996Y0088687D01*
X0173531Y0087153D01*
X0173531Y0085618D02*
X0172763Y0085618D01*
X0171996Y0084851D01*
X0171996Y0083316D01*
X0172763Y0082549D01*
X0172763Y0081014D02*
X0171996Y0080247D01*
X0171996Y0078712D01*
X0172763Y0077945D01*
X0172763Y0076410D02*
X0173531Y0076410D01*
X0174298Y0075643D01*
X0175065Y0076410D01*
X0175833Y0076410D01*
X0176600Y0075643D01*
X0176600Y0074108D01*
X0175833Y0073341D01*
X0175833Y0071806D02*
X0176600Y0071039D01*
X0176600Y0069504D01*
X0175833Y0068737D01*
X0175833Y0067202D02*
X0172763Y0067202D01*
X0171996Y0066435D01*
X0171996Y0064133D01*
X0176600Y0064133D01*
X0176600Y0066435D01*
X0175833Y0067202D01*
X0173531Y0068737D02*
X0172763Y0068737D01*
X0171996Y0069504D01*
X0171996Y0071039D01*
X0172763Y0071806D01*
X0172763Y0073341D02*
X0171996Y0074108D01*
X0171996Y0075643D01*
X0172763Y0076410D01*
X0174298Y0075643D02*
X0174298Y0074876D01*
X0175065Y0071806D02*
X0175833Y0071806D01*
X0175065Y0071806D02*
X0174298Y0071039D01*
X0174298Y0069504D01*
X0173531Y0068737D01*
X0176600Y0077945D02*
X0173531Y0081014D01*
X0172763Y0081014D01*
X0174298Y0084083D02*
X0174298Y0084851D01*
X0175065Y0085618D01*
X0175833Y0085618D01*
X0176600Y0084851D01*
X0176600Y0083316D01*
X0175833Y0082549D01*
X0176600Y0081014D02*
X0176600Y0077945D01*
X0174298Y0084851D02*
X0173531Y0085618D01*
X0199496Y0083143D02*
X0199496Y0080841D01*
X0204100Y0080841D01*
X0204100Y0083143D01*
X0203333Y0083910D01*
X0200263Y0083910D01*
X0199496Y0083143D01*
X0199496Y0079306D02*
X0204100Y0079306D01*
X0199496Y0076237D01*
X0204100Y0076237D01*
X0203333Y0074702D02*
X0201798Y0074702D01*
X0201798Y0073168D01*
X0200263Y0074702D02*
X0199496Y0073935D01*
X0199496Y0072400D01*
X0200263Y0071633D01*
X0203333Y0071633D01*
X0204100Y0072400D01*
X0204100Y0073935D01*
X0203333Y0074702D01*
X0221996Y0116633D02*
X0221996Y0118935D01*
X0222763Y0119702D01*
X0223531Y0119702D01*
X0224298Y0118935D01*
X0224298Y0116633D01*
X0226600Y0116633D02*
X0221996Y0116633D01*
X0224298Y0118935D02*
X0225065Y0119702D01*
X0225833Y0119702D01*
X0226600Y0118935D01*
X0226600Y0116633D01*
X0225833Y0121237D02*
X0225065Y0122004D01*
X0225065Y0124306D01*
X0224298Y0124306D02*
X0226600Y0124306D01*
X0226600Y0122004D01*
X0225833Y0121237D01*
X0223531Y0122004D02*
X0223531Y0123539D01*
X0224298Y0124306D01*
X0223531Y0125841D02*
X0223531Y0127376D01*
X0222763Y0126608D02*
X0225833Y0126608D01*
X0226600Y0127376D01*
X0225833Y0129678D02*
X0226600Y0130445D01*
X0225833Y0129678D02*
X0222763Y0129678D01*
X0223531Y0130445D02*
X0223531Y0128910D01*
X0224298Y0131979D02*
X0223531Y0132747D01*
X0223531Y0134281D01*
X0224298Y0135049D01*
X0225065Y0135049D01*
X0225065Y0131979D01*
X0224298Y0131979D02*
X0225833Y0131979D01*
X0226600Y0132747D01*
X0226600Y0134281D01*
X0226600Y0136583D02*
X0223531Y0136583D01*
X0225065Y0136583D02*
X0223531Y0138118D01*
X0223531Y0138885D01*
X0223531Y0140420D02*
X0225833Y0140420D01*
X0226600Y0141187D01*
X0226600Y0143489D01*
X0227367Y0143489D02*
X0223531Y0143489D01*
X0227367Y0143489D02*
X0228135Y0142722D01*
X0228135Y0141955D01*
X0225833Y0149628D02*
X0226600Y0150395D01*
X0226600Y0151930D01*
X0225833Y0152697D01*
X0225065Y0152697D01*
X0224298Y0151930D01*
X0224298Y0150395D01*
X0223531Y0149628D01*
X0222763Y0149628D01*
X0221996Y0150395D01*
X0221996Y0151930D01*
X0222763Y0152697D01*
X0223531Y0154232D02*
X0223531Y0154999D01*
X0226600Y0154999D01*
X0226600Y0154232D02*
X0226600Y0155766D01*
X0225833Y0157301D02*
X0224298Y0157301D01*
X0223531Y0158068D01*
X0223531Y0160370D01*
X0221996Y0160370D02*
X0226600Y0160370D01*
X0226600Y0158068D01*
X0225833Y0157301D01*
X0221996Y0154999D02*
X0221229Y0154999D01*
X0224298Y0161905D02*
X0223531Y0162672D01*
X0223531Y0164207D01*
X0224298Y0164974D01*
X0225065Y0164974D01*
X0225065Y0161905D01*
X0224298Y0161905D02*
X0225833Y0161905D01*
X0226600Y0162672D01*
X0226600Y0164207D01*
X0302496Y0131831D02*
X0302496Y0130296D01*
X0303263Y0129529D01*
X0303263Y0127994D02*
X0302496Y0127227D01*
X0302496Y0125693D01*
X0303263Y0124925D01*
X0304031Y0124925D01*
X0304798Y0125693D01*
X0304798Y0127227D01*
X0305565Y0127994D01*
X0306333Y0127994D01*
X0307100Y0127227D01*
X0307100Y0125693D01*
X0306333Y0124925D01*
X0306333Y0123391D02*
X0302496Y0123391D01*
X0302496Y0120321D02*
X0306333Y0120321D01*
X0307100Y0121089D01*
X0307100Y0122623D01*
X0306333Y0123391D01*
X0307867Y0126460D02*
X0301729Y0126460D01*
X0306333Y0129529D02*
X0307100Y0130296D01*
X0307100Y0131831D01*
X0306333Y0132598D01*
X0305565Y0132598D01*
X0304798Y0131831D01*
X0304798Y0131064D01*
X0304798Y0131831D02*
X0304031Y0132598D01*
X0303263Y0132598D01*
X0302496Y0131831D01*
X0341600Y0081410D02*
X0341600Y0078341D01*
X0341600Y0079876D02*
X0336996Y0079876D01*
X0338531Y0078341D01*
X0337763Y0076806D02*
X0336996Y0076039D01*
X0336996Y0074504D01*
X0337763Y0073737D01*
X0338531Y0073737D01*
X0339298Y0074504D01*
X0339298Y0076039D01*
X0340065Y0076806D01*
X0340833Y0076806D01*
X0341600Y0076039D01*
X0341600Y0074504D01*
X0340833Y0073737D01*
X0340833Y0072202D02*
X0336996Y0072202D01*
X0336996Y0069133D02*
X0340833Y0069133D01*
X0341600Y0069900D01*
X0341600Y0071435D01*
X0340833Y0072202D01*
X0342367Y0075272D02*
X0336229Y0075272D01*
X0387496Y0075296D02*
X0388263Y0074529D01*
X0391333Y0074529D01*
X0392100Y0075296D01*
X0392100Y0076831D01*
X0391333Y0077598D01*
X0388263Y0077598D01*
X0387496Y0076831D01*
X0387496Y0075296D01*
X0389031Y0072994D02*
X0392100Y0072994D01*
X0389798Y0072994D02*
X0389798Y0069925D01*
X0389031Y0069925D02*
X0392100Y0069925D01*
X0392100Y0068391D02*
X0392100Y0066856D01*
X0392100Y0067623D02*
X0387496Y0067623D01*
X0387496Y0066856D02*
X0387496Y0068391D01*
X0389031Y0069925D02*
X0387496Y0071460D01*
X0389031Y0072994D01*
X0387496Y0065321D02*
X0392100Y0062252D01*
X0392100Y0065321D02*
X0387496Y0062252D01*
X0424535Y0191633D02*
X0424535Y0196237D01*
X0426069Y0196237D02*
X0423000Y0196237D01*
X0427604Y0195470D02*
X0427604Y0194702D01*
X0428371Y0193935D01*
X0429906Y0193935D01*
X0430673Y0193168D01*
X0430673Y0192400D01*
X0429906Y0191633D01*
X0428371Y0191633D01*
X0427604Y0192400D01*
X0427604Y0195470D02*
X0428371Y0196237D01*
X0429906Y0196237D01*
X0430673Y0195470D01*
X0432208Y0196237D02*
X0432208Y0191633D01*
X0432208Y0193168D02*
X0434510Y0193168D01*
X0435277Y0193935D01*
X0435277Y0195470D01*
X0434510Y0196237D01*
X0432208Y0196237D01*
X0433742Y0193168D02*
X0435277Y0191633D01*
X0436812Y0191633D02*
X0439881Y0194702D01*
X0439881Y0195470D01*
X0439114Y0196237D01*
X0437579Y0196237D01*
X0436812Y0195470D01*
X0436812Y0191633D02*
X0439881Y0191633D01*
X0441416Y0193935D02*
X0444485Y0193935D01*
X0446020Y0195470D02*
X0446787Y0196237D01*
X0448322Y0196237D01*
X0449089Y0195470D01*
X0449089Y0194702D01*
X0446020Y0191633D01*
X0449089Y0191633D01*
X0450624Y0193935D02*
X0453693Y0193935D01*
X0455227Y0193935D02*
X0455227Y0196237D01*
X0458297Y0196237D01*
X0459831Y0195470D02*
X0460599Y0196237D01*
X0462133Y0196237D01*
X0462901Y0195470D01*
X0459831Y0192400D01*
X0460599Y0191633D01*
X0462133Y0191633D01*
X0462901Y0192400D01*
X0462901Y0195470D01*
X0459831Y0195470D02*
X0459831Y0192400D01*
X0458297Y0192400D02*
X0458297Y0193935D01*
X0457529Y0194702D01*
X0456762Y0194702D01*
X0455227Y0193935D01*
X0455227Y0192400D02*
X0455995Y0191633D01*
X0457529Y0191633D01*
X0458297Y0192400D01*
X0452926Y0191633D02*
X0452926Y0196237D01*
X0450624Y0193935D01*
X0262901Y0217900D02*
X0262901Y0220970D01*
X0262133Y0221737D01*
X0260599Y0221737D01*
X0259831Y0220970D01*
X0259831Y0217900D01*
X0260599Y0217133D01*
X0262133Y0217133D01*
X0262901Y0217900D01*
X0253693Y0217900D02*
X0252926Y0217133D01*
X0251391Y0217133D01*
X0250624Y0217900D01*
X0250624Y0220970D01*
X0251391Y0221737D01*
X0252926Y0221737D01*
X0253693Y0220970D01*
X0244485Y0220970D02*
X0244485Y0217900D01*
X0243718Y0217133D01*
X0241416Y0217133D01*
X0241416Y0221737D01*
X0243718Y0221737D01*
X0244485Y0220970D01*
X0244485Y0224633D02*
X0244485Y0229237D01*
X0241416Y0229237D02*
X0241416Y0224633D01*
X0244485Y0224633D02*
X0241416Y0229237D01*
X0235277Y0228470D02*
X0235277Y0225400D01*
X0234510Y0224633D01*
X0232208Y0224633D01*
X0232208Y0229237D01*
X0234510Y0229237D01*
X0235277Y0228470D01*
X0234510Y0232133D02*
X0232975Y0232133D01*
X0232208Y0232900D01*
X0232975Y0234435D02*
X0232208Y0235202D01*
X0232208Y0235970D01*
X0232975Y0236737D01*
X0234510Y0236737D01*
X0235277Y0235970D01*
X0234510Y0234435D02*
X0235277Y0233668D01*
X0235277Y0232900D01*
X0234510Y0232133D01*
X0234510Y0234435D02*
X0232975Y0234435D01*
X0241416Y0235970D02*
X0241416Y0232900D01*
X0242183Y0232133D01*
X0243718Y0232133D01*
X0244485Y0232900D01*
X0244485Y0234435D01*
X0242950Y0234435D01*
X0241416Y0235970D02*
X0242183Y0236737D01*
X0243718Y0236737D01*
X0244485Y0235970D01*
X0250624Y0236737D02*
X0250624Y0233668D01*
X0252158Y0232133D01*
X0253693Y0233668D01*
X0253693Y0236737D01*
X0259831Y0236737D02*
X0259831Y0233668D01*
X0261366Y0232133D01*
X0262901Y0233668D01*
X0262901Y0236737D01*
X0261366Y0229237D02*
X0259831Y0229237D01*
X0260599Y0229237D02*
X0260599Y0224633D01*
X0261366Y0224633D02*
X0259831Y0224633D01*
X0253693Y0225400D02*
X0252926Y0224633D01*
X0251391Y0224633D01*
X0250624Y0225400D01*
X0250624Y0228470D01*
X0251391Y0229237D01*
X0252926Y0229237D01*
X0253693Y0228470D01*
X0235277Y0220202D02*
X0235277Y0217133D01*
X0235277Y0219435D02*
X0232208Y0219435D01*
X0232208Y0220202D02*
X0233742Y0221737D01*
X0235277Y0220202D01*
X0232208Y0220202D02*
X0232208Y0217133D01*
X0226069Y0217133D02*
X0223000Y0217133D01*
X0223000Y0221737D01*
X0223767Y0224633D02*
X0225302Y0224633D01*
X0226069Y0225400D01*
X0223767Y0224633D02*
X0223000Y0225400D01*
X0223000Y0228470D01*
X0223767Y0229237D01*
X0225302Y0229237D01*
X0226069Y0228470D01*
X0225302Y0232133D02*
X0223767Y0232133D01*
X0223000Y0232900D01*
X0223767Y0234435D02*
X0225302Y0234435D01*
X0226069Y0233668D01*
X0226069Y0232900D01*
X0225302Y0232133D01*
X0223767Y0234435D02*
X0223000Y0235202D01*
X0223000Y0235970D01*
X0223767Y0236737D01*
X0225302Y0236737D01*
X0226069Y0235970D01*
X0089600Y0219291D02*
X0089600Y0217757D01*
X0089600Y0218524D02*
X0084996Y0218524D01*
X0084996Y0217757D02*
X0084996Y0219291D01*
X0084996Y0216222D02*
X0089600Y0216222D01*
X0087298Y0216222D02*
X0087298Y0213153D01*
X0088065Y0211618D02*
X0088833Y0211618D01*
X0089600Y0210851D01*
X0089600Y0209316D01*
X0088833Y0208549D01*
X0087298Y0209316D02*
X0086531Y0208549D01*
X0085763Y0208549D01*
X0084996Y0209316D01*
X0084996Y0210851D01*
X0085763Y0211618D01*
X0084996Y0213153D02*
X0089600Y0213153D01*
X0088065Y0211618D02*
X0087298Y0210851D01*
X0087298Y0209316D01*
X0090367Y0207014D02*
X0090367Y0203945D01*
X0089600Y0202410D02*
X0089600Y0199341D01*
X0084996Y0199341D01*
X0084996Y0197806D02*
X0088065Y0197806D01*
X0089600Y0196272D01*
X0088065Y0194737D01*
X0084996Y0194737D01*
X0089600Y0193202D02*
X0089600Y0190133D01*
X0084996Y0190133D01*
D11*
X0058227Y0177552D02*
X0057610Y0177552D01*
X0056375Y0176317D01*
X0055161Y0176317D02*
X0052692Y0176317D01*
X0052692Y0175700D02*
X0052692Y0176935D01*
X0053309Y0177552D01*
X0054544Y0177552D01*
X0055161Y0176935D01*
X0055161Y0176317D01*
X0054544Y0175083D02*
X0053309Y0175083D01*
X0052692Y0175700D01*
X0051471Y0175083D02*
X0050237Y0175083D01*
X0050854Y0175083D02*
X0050854Y0177552D01*
X0050237Y0177552D01*
X0049016Y0176935D02*
X0047781Y0176935D01*
X0048399Y0178169D02*
X0048399Y0175083D01*
X0046560Y0175083D02*
X0045326Y0175083D01*
X0045943Y0175083D02*
X0045943Y0177552D01*
X0045326Y0177552D01*
X0045943Y0178786D02*
X0045943Y0179403D01*
X0043488Y0178786D02*
X0043488Y0175083D01*
X0042871Y0175083D02*
X0044105Y0175083D01*
X0041656Y0175700D02*
X0041039Y0175083D01*
X0039187Y0175083D01*
X0037973Y0175083D02*
X0037973Y0176935D01*
X0037356Y0177552D01*
X0036739Y0176935D01*
X0036739Y0175083D01*
X0035504Y0175083D02*
X0035504Y0177552D01*
X0036121Y0177552D01*
X0036739Y0176935D01*
X0034290Y0176935D02*
X0031821Y0176935D01*
X0031821Y0177552D02*
X0031821Y0175083D01*
X0031821Y0177552D02*
X0033056Y0178786D01*
X0034290Y0177552D01*
X0034290Y0175083D01*
X0039187Y0173849D02*
X0039187Y0177552D01*
X0041039Y0177552D01*
X0041656Y0176935D01*
X0041656Y0175700D01*
X0042871Y0178786D02*
X0043488Y0178786D01*
X0048399Y0178169D02*
X0049016Y0178786D01*
X0050854Y0178786D02*
X0050854Y0179403D01*
X0056375Y0177552D02*
X0056375Y0175083D01*
X0026924Y0175700D02*
X0026924Y0176935D01*
X0026306Y0177552D01*
X0025072Y0177552D01*
X0024455Y0176935D01*
X0024455Y0175700D01*
X0025072Y0175083D01*
X0026306Y0175083D01*
X0026924Y0175700D01*
X0023234Y0175083D02*
X0021999Y0175083D01*
X0022617Y0175083D02*
X0022617Y0177552D01*
X0021999Y0177552D01*
X0020785Y0177552D02*
X0018933Y0177552D01*
X0018316Y0176935D01*
X0018316Y0175700D01*
X0018933Y0175083D01*
X0020785Y0175083D01*
X0020785Y0178786D01*
X0022617Y0178786D02*
X0022617Y0179403D01*
X0017102Y0177552D02*
X0017102Y0175083D01*
X0015250Y0175083D01*
X0014633Y0175700D01*
X0014633Y0177552D01*
X0013419Y0177552D02*
X0013419Y0175083D01*
X0013419Y0176935D02*
X0010950Y0176935D01*
X0010950Y0177552D02*
X0010950Y0175083D01*
X0010950Y0177552D02*
X0012184Y0178786D01*
X0013419Y0177552D01*
X0012802Y0128786D02*
X0011567Y0128786D01*
X0010950Y0128169D01*
X0010950Y0127552D01*
X0011567Y0126935D01*
X0012802Y0126935D01*
X0013419Y0126317D01*
X0013419Y0125700D01*
X0012802Y0125083D01*
X0011567Y0125083D01*
X0010950Y0125700D01*
X0013419Y0128169D02*
X0012802Y0128786D01*
X0014633Y0127552D02*
X0016485Y0127552D01*
X0017102Y0126935D01*
X0017102Y0125700D01*
X0016485Y0125083D01*
X0014633Y0125083D01*
X0014633Y0123849D02*
X0014633Y0127552D01*
X0018316Y0126935D02*
X0018933Y0127552D01*
X0020168Y0127552D01*
X0020785Y0126935D01*
X0020785Y0126317D01*
X0018316Y0126317D01*
X0018316Y0125700D02*
X0018316Y0126935D01*
X0018316Y0125700D02*
X0018933Y0125083D01*
X0020168Y0125083D01*
X0021999Y0125700D02*
X0022617Y0126317D01*
X0024468Y0126317D01*
X0024468Y0126935D02*
X0024468Y0125083D01*
X0022617Y0125083D01*
X0021999Y0125700D01*
X0022617Y0127552D02*
X0023851Y0127552D01*
X0024468Y0126935D01*
X0025683Y0126317D02*
X0027534Y0127552D01*
X0028752Y0126935D02*
X0029369Y0127552D01*
X0030603Y0127552D01*
X0031221Y0126935D01*
X0031221Y0126317D01*
X0028752Y0126317D01*
X0028752Y0125700D02*
X0028752Y0126935D01*
X0028752Y0125700D02*
X0029369Y0125083D01*
X0030603Y0125083D01*
X0032435Y0125083D02*
X0032435Y0127552D01*
X0033669Y0127552D02*
X0032435Y0126317D01*
X0033669Y0127552D02*
X0034287Y0127552D01*
X0027534Y0125083D02*
X0025683Y0126317D01*
X0025683Y0125083D02*
X0025683Y0128786D01*
X0430168Y0141083D02*
X0430168Y0144786D01*
X0432637Y0141083D01*
X0432637Y0144786D01*
X0432630Y0147083D02*
X0431396Y0147083D01*
X0432013Y0147083D02*
X0432013Y0150786D01*
X0431396Y0150786D02*
X0432630Y0150786D01*
X0441217Y0150169D02*
X0441217Y0147700D01*
X0441835Y0147083D01*
X0443069Y0147083D01*
X0443686Y0147700D01*
X0443686Y0148935D01*
X0442452Y0148935D01*
X0443686Y0150169D02*
X0443069Y0150786D01*
X0441835Y0150786D01*
X0441217Y0150169D01*
X0441217Y0144786D02*
X0443686Y0141083D01*
X0443686Y0144786D01*
X0441217Y0144786D02*
X0441217Y0141083D01*
X0441217Y0138786D02*
X0443069Y0138786D01*
X0443686Y0138169D01*
X0443686Y0135700D01*
X0443069Y0135083D01*
X0441217Y0135083D01*
X0441217Y0138786D01*
X0452267Y0138786D02*
X0454736Y0138786D01*
X0453501Y0138786D02*
X0453501Y0135083D01*
X0452884Y0141083D02*
X0454118Y0141083D01*
X0454736Y0141700D01*
X0454736Y0144786D01*
X0454118Y0147083D02*
X0454736Y0147700D01*
X0454736Y0150169D01*
X0454118Y0150786D01*
X0452884Y0150786D01*
X0452267Y0150169D01*
X0452267Y0147700D01*
X0452884Y0147083D01*
X0454118Y0147083D01*
X0452267Y0144786D02*
X0452267Y0141700D01*
X0452884Y0141083D01*
D12*
X0452800Y0201933D02*
X0436800Y0201933D01*
X0436800Y0211933D01*
X0452800Y0211933D01*
X0452800Y0201933D01*
X0444800Y0204433D02*
X0444800Y0206933D01*
X0444800Y0209433D01*
X0444800Y0206933D02*
X0438800Y0206933D01*
X0440800Y0204433D02*
X0444800Y0206933D01*
X0440800Y0209433D01*
X0440800Y0204433D01*
X0444800Y0206933D02*
X0447300Y0206933D01*
X0230321Y0251867D02*
X0230321Y0252734D01*
X0229453Y0252734D01*
X0228586Y0251867D02*
X0229020Y0251433D01*
X0229887Y0251433D01*
X0230321Y0251867D01*
X0230321Y0253602D02*
X0229887Y0254035D01*
X0229020Y0254035D01*
X0228586Y0253602D01*
X0228586Y0251867D01*
X0227374Y0251433D02*
X0225640Y0251433D01*
X0225640Y0254035D01*
X0227374Y0254035D01*
X0226507Y0252734D02*
X0225640Y0252734D01*
X0224428Y0252300D02*
X0224428Y0251867D01*
X0223994Y0251433D01*
X0223127Y0251433D01*
X0222693Y0251867D01*
X0223127Y0252734D02*
X0223994Y0252734D01*
X0224428Y0252300D01*
X0224428Y0253602D02*
X0223994Y0254035D01*
X0223127Y0254035D01*
X0222693Y0253602D01*
X0222693Y0253168D01*
X0223127Y0252734D01*
X0221481Y0252734D02*
X0219747Y0252734D01*
X0218535Y0253602D02*
X0216800Y0251867D01*
X0216800Y0251433D01*
X0216800Y0254035D02*
X0218535Y0254035D01*
X0218535Y0253602D01*
X0039543Y0228882D02*
X0035271Y0228882D01*
X0035271Y0222473D01*
X0039543Y0222473D01*
X0037407Y0225677D02*
X0035271Y0225677D01*
X0033095Y0225677D02*
X0032026Y0224609D01*
X0028822Y0224609D01*
X0028822Y0222473D02*
X0028822Y0228882D01*
X0032026Y0228882D01*
X0033095Y0227814D01*
X0033095Y0225677D01*
X0030958Y0224609D02*
X0033095Y0222473D01*
X0026646Y0225677D02*
X0026646Y0227814D01*
X0025578Y0228882D01*
X0022373Y0228882D01*
X0022373Y0222473D01*
X0022373Y0224609D02*
X0025578Y0224609D01*
X0026646Y0225677D01*
X0051800Y0131933D02*
X0051800Y0115933D01*
X0061800Y0115933D01*
X0061800Y0131933D01*
X0051800Y0131933D01*
X0054300Y0127933D02*
X0056800Y0123933D01*
X0059300Y0123933D01*
X0056800Y0123933D02*
X0054300Y0123933D01*
X0056800Y0123933D02*
X0056800Y0129933D01*
X0059300Y0127933D02*
X0056800Y0123933D01*
X0056800Y0121433D01*
X0054300Y0127933D02*
X0059300Y0127933D01*
D13*
X0423863Y0115650D02*
X0423863Y0107382D01*
X0423863Y0115650D02*
X0426619Y0115650D01*
X0445123Y0115650D02*
X0465989Y0115650D01*
X0465989Y0080217D01*
X0423863Y0080217D01*
X0423863Y0088484D01*
D14*
X0456249Y0084957D02*
X0457750Y0084957D01*
X0457750Y0085457D02*
X0457750Y0084456D01*
X0457500Y0083734D02*
X0456249Y0083734D01*
X0456249Y0083984D02*
X0456249Y0083483D01*
X0456749Y0084456D02*
X0456249Y0084957D01*
X0457500Y0083734D02*
X0457750Y0083483D01*
X0457750Y0083233D01*
X0457500Y0082983D01*
X0153675Y0216967D02*
X0153675Y0217734D01*
X0152907Y0217734D01*
X0152140Y0216967D02*
X0152524Y0216583D01*
X0153291Y0216583D01*
X0153675Y0216967D01*
X0153675Y0218501D02*
X0153291Y0218885D01*
X0152524Y0218885D01*
X0152140Y0218501D01*
X0152140Y0216967D01*
X0151465Y0216583D02*
X0151465Y0218885D01*
X0151465Y0217734D02*
X0149930Y0217734D01*
X0149930Y0216583D02*
X0149930Y0218885D01*
X0141018Y0213885D02*
X0141018Y0211583D01*
X0139867Y0211583D01*
X0139484Y0211967D01*
X0139484Y0212734D01*
X0139867Y0213118D01*
X0141018Y0213118D01*
X0141693Y0212734D02*
X0142077Y0213118D01*
X0142844Y0213118D01*
X0143228Y0212734D01*
X0143228Y0212350D01*
X0141693Y0212350D01*
X0141693Y0211967D02*
X0141693Y0212734D01*
X0141693Y0211967D02*
X0142077Y0211583D01*
X0142844Y0211583D01*
X0138778Y0211583D02*
X0138010Y0211583D01*
X0138394Y0211583D02*
X0138394Y0213118D01*
X0138010Y0213118D01*
X0137335Y0213118D02*
X0136184Y0213118D01*
X0135800Y0212734D01*
X0136184Y0212350D01*
X0136951Y0212350D01*
X0137335Y0211967D01*
X0136951Y0211583D01*
X0135800Y0211583D01*
X0135094Y0211583D02*
X0134711Y0211967D01*
X0134711Y0213501D01*
X0135094Y0213118D02*
X0134327Y0213118D01*
X0133652Y0213118D02*
X0133652Y0211583D01*
X0132501Y0211583D01*
X0132117Y0211967D01*
X0132117Y0213118D01*
X0131442Y0213501D02*
X0131058Y0213885D01*
X0130291Y0213885D01*
X0129907Y0213501D01*
X0129907Y0211967D01*
X0130291Y0211583D01*
X0131058Y0211583D01*
X0131442Y0211967D01*
X0131442Y0213501D01*
X0127007Y0213118D02*
X0126623Y0213118D01*
X0125856Y0212350D01*
X0125181Y0212350D02*
X0123646Y0212350D01*
X0123646Y0211967D02*
X0123646Y0212734D01*
X0124030Y0213118D01*
X0124797Y0213118D01*
X0125181Y0212734D01*
X0125181Y0212350D01*
X0124797Y0211583D02*
X0124030Y0211583D01*
X0123646Y0211967D01*
X0122971Y0211967D02*
X0122971Y0213118D01*
X0122971Y0211967D02*
X0122587Y0211583D01*
X0122204Y0211967D01*
X0121820Y0211583D01*
X0121436Y0211967D01*
X0121436Y0213118D01*
X0120761Y0212734D02*
X0120377Y0213118D01*
X0119610Y0213118D01*
X0119226Y0212734D01*
X0119226Y0211967D01*
X0119610Y0211583D01*
X0120377Y0211583D01*
X0120761Y0211967D01*
X0120761Y0212734D01*
X0118551Y0212734D02*
X0118167Y0212350D01*
X0117016Y0212350D01*
X0117016Y0211583D02*
X0117016Y0213885D01*
X0118167Y0213885D01*
X0118551Y0213501D01*
X0118551Y0212734D01*
X0114101Y0213118D02*
X0113333Y0213118D01*
X0113717Y0213501D02*
X0113717Y0211967D01*
X0114101Y0211583D01*
X0112627Y0211583D02*
X0111860Y0211583D01*
X0112244Y0211583D02*
X0112244Y0213118D01*
X0111860Y0213118D01*
X0111185Y0213118D02*
X0111185Y0211583D01*
X0110034Y0211583D01*
X0109650Y0211967D01*
X0109650Y0213118D01*
X0108960Y0213118D02*
X0108576Y0213118D01*
X0107809Y0212350D01*
X0107809Y0211583D02*
X0107809Y0213118D01*
X0107103Y0212734D02*
X0106335Y0212734D01*
X0105660Y0212734D02*
X0105660Y0211583D01*
X0104509Y0211583D01*
X0104125Y0211967D01*
X0104509Y0212350D01*
X0105660Y0212350D01*
X0105660Y0212734D02*
X0105276Y0213118D01*
X0104509Y0213118D01*
X0103450Y0213118D02*
X0102299Y0213118D01*
X0101916Y0212734D01*
X0101916Y0211967D01*
X0102299Y0211583D01*
X0103450Y0211583D01*
X0103450Y0213885D01*
X0101240Y0213118D02*
X0101240Y0211583D01*
X0101240Y0212734D02*
X0099706Y0212734D01*
X0099706Y0213118D02*
X0100473Y0213885D01*
X0101240Y0213118D01*
X0099706Y0213118D02*
X0099706Y0211583D01*
X0106719Y0211583D02*
X0106719Y0213501D01*
X0107103Y0213885D01*
X0103675Y0217350D02*
X0103675Y0218885D01*
X0103675Y0217350D02*
X0102907Y0216583D01*
X0102140Y0217350D01*
X0102140Y0218885D01*
X0101465Y0218885D02*
X0101465Y0216583D01*
X0101465Y0217734D02*
X0099930Y0217734D01*
X0099930Y0216583D02*
X0099930Y0218885D01*
X0112244Y0214269D02*
X0112244Y0213885D01*
X0106397Y0206685D02*
X0104862Y0206685D01*
X0104862Y0204383D01*
X0106397Y0204383D01*
X0107072Y0204383D02*
X0108607Y0205918D01*
X0109282Y0205918D02*
X0110433Y0205918D01*
X0110816Y0205534D01*
X0110816Y0204767D01*
X0110433Y0204383D01*
X0109282Y0204383D01*
X0108607Y0204383D02*
X0107072Y0205918D01*
X0105629Y0205534D02*
X0104862Y0205534D01*
X0103772Y0205918D02*
X0103772Y0204383D01*
X0103389Y0204383D02*
X0104156Y0204383D01*
X0102683Y0204383D02*
X0101916Y0204383D01*
X0102299Y0204383D02*
X0102299Y0206685D01*
X0101916Y0206685D01*
X0101240Y0205918D02*
X0100473Y0206685D01*
X0099706Y0205918D01*
X0099706Y0204383D01*
X0099706Y0205534D02*
X0101240Y0205534D01*
X0101240Y0205918D02*
X0101240Y0204383D01*
X0103389Y0205918D02*
X0103772Y0205918D01*
X0103772Y0206685D02*
X0103772Y0207069D01*
X0109282Y0205918D02*
X0109282Y0203616D01*
X0111492Y0204383D02*
X0111492Y0205918D01*
X0112259Y0205918D02*
X0112643Y0205918D01*
X0112259Y0205918D02*
X0111492Y0205150D01*
X0113333Y0205150D02*
X0114868Y0205150D01*
X0114868Y0205534D01*
X0114484Y0205918D01*
X0113717Y0205918D01*
X0113333Y0205534D01*
X0113333Y0204767D01*
X0113717Y0204383D01*
X0114484Y0204383D01*
X0115543Y0204383D02*
X0116694Y0204383D01*
X0117078Y0204767D01*
X0116694Y0205150D01*
X0115927Y0205150D01*
X0115543Y0205534D01*
X0115927Y0205918D01*
X0117078Y0205918D01*
X0117753Y0205534D02*
X0118137Y0205918D01*
X0119288Y0205918D01*
X0118904Y0205150D02*
X0119288Y0204767D01*
X0118904Y0204383D01*
X0117753Y0204383D01*
X0118137Y0205150D02*
X0117753Y0205534D01*
X0118137Y0205150D02*
X0118904Y0205150D01*
X0122173Y0204383D02*
X0123324Y0204383D01*
X0123707Y0204767D01*
X0123707Y0205534D01*
X0123324Y0205918D01*
X0122173Y0205918D01*
X0122173Y0203616D01*
X0124383Y0204767D02*
X0124766Y0204383D01*
X0125534Y0204383D01*
X0125917Y0204767D01*
X0125917Y0205534D01*
X0125534Y0205918D01*
X0124766Y0205918D01*
X0124383Y0205534D01*
X0124383Y0204767D01*
X0126593Y0204767D02*
X0126976Y0204383D01*
X0127360Y0204767D01*
X0127744Y0204383D01*
X0128127Y0204767D01*
X0128127Y0205918D01*
X0128802Y0205534D02*
X0129186Y0205918D01*
X0129953Y0205918D01*
X0130337Y0205534D01*
X0130337Y0205150D01*
X0128802Y0205150D01*
X0128802Y0204767D02*
X0128802Y0205534D01*
X0128802Y0204767D02*
X0129186Y0204383D01*
X0129953Y0204383D01*
X0131012Y0204383D02*
X0131012Y0205918D01*
X0131012Y0205150D02*
X0131780Y0205918D01*
X0132163Y0205918D01*
X0135064Y0206685D02*
X0135831Y0206685D01*
X0135447Y0206685D02*
X0135447Y0204383D01*
X0135064Y0204383D02*
X0135831Y0204383D01*
X0136537Y0204383D02*
X0136537Y0205918D01*
X0137688Y0205918D01*
X0138072Y0205534D01*
X0138072Y0204383D01*
X0138747Y0204383D02*
X0139898Y0204383D01*
X0140282Y0204767D01*
X0139898Y0205150D01*
X0139131Y0205150D01*
X0138747Y0205534D01*
X0139131Y0205918D01*
X0140282Y0205918D01*
X0140957Y0205918D02*
X0141340Y0205918D01*
X0141340Y0204383D01*
X0140957Y0204383D02*
X0141724Y0204383D01*
X0142430Y0204767D02*
X0142430Y0205534D01*
X0142814Y0205918D01*
X0143965Y0205918D01*
X0143965Y0206685D02*
X0143965Y0204383D01*
X0142814Y0204383D01*
X0142430Y0204767D01*
X0141340Y0206685D02*
X0141340Y0207069D01*
X0144640Y0205534D02*
X0145024Y0205918D01*
X0145791Y0205918D01*
X0146175Y0205534D01*
X0146175Y0205150D01*
X0144640Y0205150D01*
X0144640Y0204767D02*
X0144640Y0205534D01*
X0144640Y0204767D02*
X0145024Y0204383D01*
X0145791Y0204383D01*
X0133675Y0201001D02*
X0133291Y0201385D01*
X0132524Y0201385D01*
X0132140Y0201001D01*
X0132140Y0199467D01*
X0132524Y0199083D01*
X0133291Y0199083D01*
X0133675Y0199467D01*
X0133675Y0200234D01*
X0132907Y0200234D01*
X0131465Y0199083D02*
X0129930Y0199083D01*
X0129930Y0201385D01*
X0126593Y0204767D02*
X0126593Y0205918D01*
X0118675Y0201385D02*
X0118675Y0199850D01*
X0117907Y0199083D01*
X0117140Y0199850D01*
X0117140Y0201385D01*
X0114930Y0201385D02*
X0114930Y0199083D01*
X0116465Y0199083D01*
X0125856Y0211583D02*
X0125856Y0213118D01*
X0138394Y0213885D02*
X0138394Y0214269D01*
D15*
X0131800Y0056433D02*
X0111800Y0056433D01*
X0111800Y0071433D01*
X0131800Y0071433D01*
X0131800Y0056433D01*
X0156800Y0058933D02*
X0081800Y0058933D01*
X0081660Y0058935D01*
X0081520Y0058941D01*
X0081380Y0058951D01*
X0081240Y0058964D01*
X0081101Y0058982D01*
X0080962Y0059004D01*
X0080825Y0059029D01*
X0080687Y0059058D01*
X0080551Y0059091D01*
X0080416Y0059128D01*
X0080282Y0059169D01*
X0080149Y0059214D01*
X0080017Y0059262D01*
X0079887Y0059314D01*
X0079758Y0059369D01*
X0079631Y0059428D01*
X0079505Y0059491D01*
X0079381Y0059557D01*
X0079260Y0059626D01*
X0079140Y0059699D01*
X0079022Y0059776D01*
X0078907Y0059855D01*
X0078793Y0059938D01*
X0078683Y0060024D01*
X0078574Y0060113D01*
X0078468Y0060205D01*
X0078365Y0060300D01*
X0078264Y0060397D01*
X0078167Y0060498D01*
X0078072Y0060601D01*
X0077980Y0060707D01*
X0077891Y0060816D01*
X0077805Y0060926D01*
X0077722Y0061040D01*
X0077643Y0061155D01*
X0077566Y0061273D01*
X0077493Y0061393D01*
X0077424Y0061514D01*
X0077358Y0061638D01*
X0077295Y0061764D01*
X0077236Y0061891D01*
X0077181Y0062020D01*
X0077129Y0062150D01*
X0077081Y0062282D01*
X0077036Y0062415D01*
X0076995Y0062549D01*
X0076958Y0062684D01*
X0076925Y0062820D01*
X0076896Y0062958D01*
X0076871Y0063095D01*
X0076849Y0063234D01*
X0076831Y0063373D01*
X0076818Y0063513D01*
X0076808Y0063653D01*
X0076802Y0063793D01*
X0076800Y0063933D01*
X0076800Y0163933D01*
X0076833Y0164088D01*
X0076870Y0164243D01*
X0076911Y0164397D01*
X0076955Y0164549D01*
X0077004Y0164701D01*
X0077056Y0164851D01*
X0077112Y0164999D01*
X0077171Y0165147D01*
X0077235Y0165293D01*
X0077302Y0165437D01*
X0077372Y0165579D01*
X0077446Y0165720D01*
X0077523Y0165859D01*
X0077604Y0165995D01*
X0077689Y0166130D01*
X0077776Y0166263D01*
X0077867Y0166393D01*
X0077961Y0166521D01*
X0078058Y0166647D01*
X0078159Y0166770D01*
X0078262Y0166891D01*
X0078369Y0167009D01*
X0078478Y0167124D01*
X0078590Y0167237D01*
X0078705Y0167346D01*
X0078823Y0167453D01*
X0078943Y0167557D01*
X0079066Y0167658D01*
X0079191Y0167756D01*
X0079319Y0167851D01*
X0079449Y0167942D01*
X0079581Y0168030D01*
X0079715Y0168115D01*
X0079852Y0168196D01*
X0079990Y0168274D01*
X0080130Y0168349D01*
X0080273Y0168420D01*
X0080416Y0168487D01*
X0080562Y0168551D01*
X0080709Y0168612D01*
X0080858Y0168668D01*
X0081007Y0168721D01*
X0081159Y0168770D01*
X0081311Y0168815D01*
X0081464Y0168857D01*
X0081619Y0168894D01*
X0081774Y0168928D01*
X0081930Y0168958D01*
X0082087Y0168984D01*
X0082244Y0169006D01*
X0082402Y0169024D01*
X0082561Y0169038D01*
X0082719Y0169048D01*
X0082878Y0169055D01*
X0083037Y0169057D01*
X0083196Y0169055D01*
X0083355Y0169050D01*
X0083513Y0169040D01*
X0083672Y0169027D01*
X0083829Y0169009D01*
X0083987Y0168988D01*
X0084144Y0168962D01*
X0084300Y0168933D01*
X0154300Y0168933D01*
X0154456Y0168962D01*
X0154613Y0168988D01*
X0154771Y0169009D01*
X0154928Y0169027D01*
X0155087Y0169040D01*
X0155245Y0169050D01*
X0155404Y0169055D01*
X0155563Y0169057D01*
X0155722Y0169055D01*
X0155881Y0169048D01*
X0156039Y0169038D01*
X0156198Y0169024D01*
X0156356Y0169006D01*
X0156513Y0168984D01*
X0156670Y0168958D01*
X0156826Y0168928D01*
X0156981Y0168894D01*
X0157136Y0168857D01*
X0157289Y0168815D01*
X0157441Y0168770D01*
X0157593Y0168721D01*
X0157742Y0168668D01*
X0157891Y0168612D01*
X0158038Y0168551D01*
X0158184Y0168487D01*
X0158327Y0168420D01*
X0158470Y0168349D01*
X0158610Y0168274D01*
X0158748Y0168196D01*
X0158885Y0168115D01*
X0159019Y0168030D01*
X0159151Y0167942D01*
X0159281Y0167851D01*
X0159409Y0167756D01*
X0159534Y0167658D01*
X0159657Y0167557D01*
X0159777Y0167453D01*
X0159895Y0167346D01*
X0160010Y0167237D01*
X0160122Y0167124D01*
X0160231Y0167009D01*
X0160338Y0166891D01*
X0160441Y0166770D01*
X0160542Y0166647D01*
X0160639Y0166521D01*
X0160733Y0166393D01*
X0160824Y0166263D01*
X0160911Y0166130D01*
X0160996Y0165995D01*
X0161077Y0165859D01*
X0161154Y0165720D01*
X0161228Y0165579D01*
X0161298Y0165437D01*
X0161365Y0165293D01*
X0161429Y0165147D01*
X0161488Y0164999D01*
X0161544Y0164851D01*
X0161596Y0164701D01*
X0161645Y0164549D01*
X0161689Y0164397D01*
X0161730Y0164243D01*
X0161767Y0164088D01*
X0161800Y0163933D01*
X0161800Y0063933D01*
X0161798Y0063793D01*
X0161792Y0063653D01*
X0161782Y0063513D01*
X0161769Y0063373D01*
X0161751Y0063234D01*
X0161729Y0063095D01*
X0161704Y0062958D01*
X0161675Y0062820D01*
X0161642Y0062684D01*
X0161605Y0062549D01*
X0161564Y0062415D01*
X0161519Y0062282D01*
X0161471Y0062150D01*
X0161419Y0062020D01*
X0161364Y0061891D01*
X0161305Y0061764D01*
X0161242Y0061638D01*
X0161176Y0061514D01*
X0161107Y0061393D01*
X0161034Y0061273D01*
X0160957Y0061155D01*
X0160878Y0061040D01*
X0160795Y0060926D01*
X0160709Y0060816D01*
X0160620Y0060707D01*
X0160528Y0060601D01*
X0160433Y0060498D01*
X0160336Y0060397D01*
X0160235Y0060300D01*
X0160132Y0060205D01*
X0160026Y0060113D01*
X0159917Y0060024D01*
X0159807Y0059938D01*
X0159693Y0059855D01*
X0159578Y0059776D01*
X0159460Y0059699D01*
X0159340Y0059626D01*
X0159219Y0059557D01*
X0159095Y0059491D01*
X0158969Y0059428D01*
X0158842Y0059369D01*
X0158713Y0059314D01*
X0158583Y0059262D01*
X0158451Y0059214D01*
X0158318Y0059169D01*
X0158184Y0059128D01*
X0158049Y0059091D01*
X0157913Y0059058D01*
X0157775Y0059029D01*
X0157638Y0059004D01*
X0157499Y0058982D01*
X0157360Y0058964D01*
X0157220Y0058951D01*
X0157080Y0058941D01*
X0156940Y0058935D01*
X0156800Y0058933D01*
X0181800Y0058933D02*
X0181800Y0208933D01*
X0271800Y0208933D01*
X0271800Y0058933D01*
X0181800Y0058933D01*
X0286800Y0058933D02*
X0331800Y0058933D01*
X0331800Y0073933D01*
X0361800Y0073933D01*
X0361800Y0058933D01*
X0331800Y0058933D01*
X0332300Y0056433D02*
X0332300Y0083933D01*
X0362300Y0083933D01*
X0362300Y0056433D01*
X0332300Y0056433D01*
X0314800Y0058933D02*
X0379800Y0058933D01*
X0379898Y0058935D01*
X0379996Y0058941D01*
X0380094Y0058950D01*
X0380191Y0058964D01*
X0380288Y0058981D01*
X0380384Y0059002D01*
X0380479Y0059027D01*
X0380573Y0059055D01*
X0380665Y0059088D01*
X0380757Y0059123D01*
X0380847Y0059163D01*
X0380935Y0059205D01*
X0381022Y0059252D01*
X0381106Y0059301D01*
X0381189Y0059354D01*
X0381269Y0059410D01*
X0381348Y0059470D01*
X0381424Y0059532D01*
X0381497Y0059597D01*
X0381568Y0059665D01*
X0381636Y0059736D01*
X0381701Y0059809D01*
X0381763Y0059885D01*
X0381823Y0059964D01*
X0381879Y0060044D01*
X0381932Y0060127D01*
X0381981Y0060211D01*
X0382028Y0060298D01*
X0382070Y0060386D01*
X0382110Y0060476D01*
X0382145Y0060568D01*
X0382178Y0060660D01*
X0382206Y0060754D01*
X0382231Y0060849D01*
X0382252Y0060945D01*
X0382269Y0061042D01*
X0382283Y0061139D01*
X0382292Y0061237D01*
X0382298Y0061335D01*
X0382300Y0061433D01*
X0382300Y0138933D01*
X0382298Y0139031D01*
X0382292Y0139129D01*
X0382283Y0139227D01*
X0382269Y0139324D01*
X0382252Y0139421D01*
X0382231Y0139517D01*
X0382206Y0139612D01*
X0382178Y0139706D01*
X0382145Y0139798D01*
X0382110Y0139890D01*
X0382070Y0139980D01*
X0382028Y0140068D01*
X0381981Y0140155D01*
X0381932Y0140239D01*
X0381879Y0140322D01*
X0381823Y0140402D01*
X0381763Y0140481D01*
X0381701Y0140557D01*
X0381636Y0140630D01*
X0381568Y0140701D01*
X0381497Y0140769D01*
X0381424Y0140834D01*
X0381348Y0140896D01*
X0381269Y0140956D01*
X0381189Y0141012D01*
X0381106Y0141065D01*
X0381022Y0141114D01*
X0380935Y0141161D01*
X0380847Y0141203D01*
X0380757Y0141243D01*
X0380665Y0141278D01*
X0380573Y0141311D01*
X0380479Y0141339D01*
X0380384Y0141364D01*
X0380288Y0141385D01*
X0380191Y0141402D01*
X0380094Y0141416D01*
X0379996Y0141425D01*
X0379898Y0141431D01*
X0379800Y0141433D01*
X0314800Y0141433D01*
X0314702Y0141431D01*
X0314604Y0141425D01*
X0314506Y0141416D01*
X0314409Y0141402D01*
X0314312Y0141385D01*
X0314216Y0141364D01*
X0314121Y0141339D01*
X0314027Y0141311D01*
X0313935Y0141278D01*
X0313843Y0141243D01*
X0313753Y0141203D01*
X0313665Y0141161D01*
X0313578Y0141114D01*
X0313494Y0141065D01*
X0313411Y0141012D01*
X0313331Y0140956D01*
X0313252Y0140896D01*
X0313176Y0140834D01*
X0313103Y0140769D01*
X0313032Y0140701D01*
X0312964Y0140630D01*
X0312899Y0140557D01*
X0312837Y0140481D01*
X0312777Y0140402D01*
X0312721Y0140322D01*
X0312668Y0140239D01*
X0312619Y0140155D01*
X0312572Y0140068D01*
X0312530Y0139980D01*
X0312490Y0139890D01*
X0312455Y0139798D01*
X0312422Y0139706D01*
X0312394Y0139612D01*
X0312369Y0139517D01*
X0312348Y0139421D01*
X0312331Y0139324D01*
X0312317Y0139227D01*
X0312308Y0139129D01*
X0312302Y0139031D01*
X0312300Y0138933D01*
X0312300Y0061433D01*
X0312302Y0061335D01*
X0312308Y0061237D01*
X0312317Y0061139D01*
X0312331Y0061042D01*
X0312348Y0060945D01*
X0312369Y0060849D01*
X0312394Y0060754D01*
X0312422Y0060660D01*
X0312455Y0060568D01*
X0312490Y0060476D01*
X0312530Y0060386D01*
X0312572Y0060298D01*
X0312619Y0060211D01*
X0312668Y0060127D01*
X0312721Y0060044D01*
X0312777Y0059964D01*
X0312837Y0059885D01*
X0312899Y0059809D01*
X0312964Y0059736D01*
X0313032Y0059665D01*
X0313103Y0059597D01*
X0313176Y0059532D01*
X0313252Y0059470D01*
X0313331Y0059410D01*
X0313411Y0059354D01*
X0313494Y0059301D01*
X0313578Y0059252D01*
X0313665Y0059205D01*
X0313753Y0059163D01*
X0313843Y0059123D01*
X0313935Y0059088D01*
X0314027Y0059055D01*
X0314121Y0059027D01*
X0314216Y0059002D01*
X0314312Y0058981D01*
X0314409Y0058964D01*
X0314506Y0058950D01*
X0314604Y0058941D01*
X0314702Y0058935D01*
X0314800Y0058933D01*
X0286800Y0058933D02*
X0286800Y0213933D01*
X0406800Y0213933D01*
X0406800Y0058933D01*
X0361800Y0058933D01*
X0367300Y0088933D02*
X0327300Y0088933D01*
X0327300Y0133933D01*
X0367300Y0133933D01*
X0367300Y0088933D01*
X0417800Y0153933D02*
X0417800Y0188933D01*
X0467800Y0188933D01*
X0467800Y0153933D01*
X0417800Y0153933D01*
X0443842Y0195683D02*
X0446094Y0195683D01*
X0446845Y0196434D01*
X0446845Y0199436D01*
X0446094Y0200187D01*
X0443842Y0200187D01*
X0443842Y0195683D01*
X0448446Y0195683D02*
X0451449Y0195683D01*
X0449947Y0195683D02*
X0449947Y0200187D01*
X0448446Y0198686D01*
X0194784Y0138933D02*
X0194794Y0139719D01*
X0194823Y0140504D01*
X0194871Y0141288D01*
X0194938Y0142071D01*
X0195025Y0142852D01*
X0195131Y0143631D01*
X0195255Y0144407D01*
X0195399Y0145179D01*
X0195562Y0145948D01*
X0195743Y0146712D01*
X0195944Y0147472D01*
X0196163Y0148227D01*
X0196400Y0148976D01*
X0196656Y0149719D01*
X0196929Y0150455D01*
X0197221Y0151185D01*
X0197531Y0151907D01*
X0197858Y0152622D01*
X0198203Y0153328D01*
X0198564Y0154025D01*
X0198943Y0154714D01*
X0199339Y0155393D01*
X0199751Y0156061D01*
X0200180Y0156720D01*
X0200624Y0157368D01*
X0201085Y0158005D01*
X0201560Y0158630D01*
X0202051Y0159244D01*
X0202557Y0159845D01*
X0203078Y0160434D01*
X0203613Y0161009D01*
X0204161Y0161572D01*
X0204724Y0162120D01*
X0205299Y0162655D01*
X0205888Y0163176D01*
X0206489Y0163682D01*
X0207103Y0164173D01*
X0207728Y0164648D01*
X0208365Y0165109D01*
X0209013Y0165553D01*
X0209672Y0165982D01*
X0210340Y0166394D01*
X0211019Y0166790D01*
X0211708Y0167169D01*
X0212405Y0167530D01*
X0213111Y0167875D01*
X0213826Y0168202D01*
X0214548Y0168512D01*
X0215278Y0168804D01*
X0216014Y0169077D01*
X0216757Y0169333D01*
X0217506Y0169570D01*
X0218261Y0169789D01*
X0219021Y0169990D01*
X0219785Y0170171D01*
X0220554Y0170334D01*
X0221326Y0170478D01*
X0222102Y0170602D01*
X0222881Y0170708D01*
X0223662Y0170795D01*
X0224445Y0170862D01*
X0225229Y0170910D01*
X0226014Y0170939D01*
X0226800Y0170949D01*
X0227586Y0170939D01*
X0228371Y0170910D01*
X0229155Y0170862D01*
X0229938Y0170795D01*
X0230719Y0170708D01*
X0231498Y0170602D01*
X0232274Y0170478D01*
X0233046Y0170334D01*
X0233815Y0170171D01*
X0234579Y0169990D01*
X0235339Y0169789D01*
X0236094Y0169570D01*
X0236843Y0169333D01*
X0237586Y0169077D01*
X0238322Y0168804D01*
X0239052Y0168512D01*
X0239774Y0168202D01*
X0240489Y0167875D01*
X0241195Y0167530D01*
X0241892Y0167169D01*
X0242581Y0166790D01*
X0243260Y0166394D01*
X0243928Y0165982D01*
X0244587Y0165553D01*
X0245235Y0165109D01*
X0245872Y0164648D01*
X0246497Y0164173D01*
X0247111Y0163682D01*
X0247712Y0163176D01*
X0248301Y0162655D01*
X0248876Y0162120D01*
X0249439Y0161572D01*
X0249987Y0161009D01*
X0250522Y0160434D01*
X0251043Y0159845D01*
X0251549Y0159244D01*
X0252040Y0158630D01*
X0252515Y0158005D01*
X0252976Y0157368D01*
X0253420Y0156720D01*
X0253849Y0156061D01*
X0254261Y0155393D01*
X0254657Y0154714D01*
X0255036Y0154025D01*
X0255397Y0153328D01*
X0255742Y0152622D01*
X0256069Y0151907D01*
X0256379Y0151185D01*
X0256671Y0150455D01*
X0256944Y0149719D01*
X0257200Y0148976D01*
X0257437Y0148227D01*
X0257656Y0147472D01*
X0257857Y0146712D01*
X0258038Y0145948D01*
X0258201Y0145179D01*
X0258345Y0144407D01*
X0258469Y0143631D01*
X0258575Y0142852D01*
X0258662Y0142071D01*
X0258729Y0141288D01*
X0258777Y0140504D01*
X0258806Y0139719D01*
X0258816Y0138933D01*
X0258806Y0138147D01*
X0258777Y0137362D01*
X0258729Y0136578D01*
X0258662Y0135795D01*
X0258575Y0135014D01*
X0258469Y0134235D01*
X0258345Y0133459D01*
X0258201Y0132687D01*
X0258038Y0131918D01*
X0257857Y0131154D01*
X0257656Y0130394D01*
X0257437Y0129639D01*
X0257200Y0128890D01*
X0256944Y0128147D01*
X0256671Y0127411D01*
X0256379Y0126681D01*
X0256069Y0125959D01*
X0255742Y0125244D01*
X0255397Y0124538D01*
X0255036Y0123841D01*
X0254657Y0123152D01*
X0254261Y0122473D01*
X0253849Y0121805D01*
X0253420Y0121146D01*
X0252976Y0120498D01*
X0252515Y0119861D01*
X0252040Y0119236D01*
X0251549Y0118622D01*
X0251043Y0118021D01*
X0250522Y0117432D01*
X0249987Y0116857D01*
X0249439Y0116294D01*
X0248876Y0115746D01*
X0248301Y0115211D01*
X0247712Y0114690D01*
X0247111Y0114184D01*
X0246497Y0113693D01*
X0245872Y0113218D01*
X0245235Y0112757D01*
X0244587Y0112313D01*
X0243928Y0111884D01*
X0243260Y0111472D01*
X0242581Y0111076D01*
X0241892Y0110697D01*
X0241195Y0110336D01*
X0240489Y0109991D01*
X0239774Y0109664D01*
X0239052Y0109354D01*
X0238322Y0109062D01*
X0237586Y0108789D01*
X0236843Y0108533D01*
X0236094Y0108296D01*
X0235339Y0108077D01*
X0234579Y0107876D01*
X0233815Y0107695D01*
X0233046Y0107532D01*
X0232274Y0107388D01*
X0231498Y0107264D01*
X0230719Y0107158D01*
X0229938Y0107071D01*
X0229155Y0107004D01*
X0228371Y0106956D01*
X0227586Y0106927D01*
X0226800Y0106917D01*
X0226014Y0106927D01*
X0225229Y0106956D01*
X0224445Y0107004D01*
X0223662Y0107071D01*
X0222881Y0107158D01*
X0222102Y0107264D01*
X0221326Y0107388D01*
X0220554Y0107532D01*
X0219785Y0107695D01*
X0219021Y0107876D01*
X0218261Y0108077D01*
X0217506Y0108296D01*
X0216757Y0108533D01*
X0216014Y0108789D01*
X0215278Y0109062D01*
X0214548Y0109354D01*
X0213826Y0109664D01*
X0213111Y0109991D01*
X0212405Y0110336D01*
X0211708Y0110697D01*
X0211019Y0111076D01*
X0210340Y0111472D01*
X0209672Y0111884D01*
X0209013Y0112313D01*
X0208365Y0112757D01*
X0207728Y0113218D01*
X0207103Y0113693D01*
X0206489Y0114184D01*
X0205888Y0114690D01*
X0205299Y0115211D01*
X0204724Y0115746D01*
X0204161Y0116294D01*
X0203613Y0116857D01*
X0203078Y0117432D01*
X0202557Y0118021D01*
X0202051Y0118622D01*
X0201560Y0119236D01*
X0201085Y0119861D01*
X0200624Y0120498D01*
X0200180Y0121146D01*
X0199751Y0121805D01*
X0199339Y0122473D01*
X0198943Y0123152D01*
X0198564Y0123841D01*
X0198203Y0124538D01*
X0197858Y0125244D01*
X0197531Y0125959D01*
X0197221Y0126681D01*
X0196929Y0127411D01*
X0196656Y0128147D01*
X0196400Y0128890D01*
X0196163Y0129639D01*
X0195944Y0130394D01*
X0195743Y0131154D01*
X0195562Y0131918D01*
X0195399Y0132687D01*
X0195255Y0133459D01*
X0195131Y0134235D01*
X0195025Y0135014D01*
X0194938Y0135795D01*
X0194871Y0136578D01*
X0194823Y0137362D01*
X0194794Y0138147D01*
X0194784Y0138933D01*
X0161800Y0173933D02*
X0161800Y0243933D01*
X0091800Y0243933D01*
X0091800Y0173933D01*
X0161800Y0173933D01*
X0077194Y0183185D02*
X0022076Y0183185D01*
X0022076Y0190665D01*
X0006328Y0190665D01*
X0006328Y0214287D01*
X0022076Y0214287D01*
X0022076Y0215469D01*
X0077194Y0215469D01*
X0077194Y0183185D01*
X0050050Y0123790D02*
X0050050Y0120787D01*
X0047047Y0123790D01*
X0046297Y0123790D01*
X0045546Y0123039D01*
X0045546Y0121538D01*
X0046297Y0120787D01*
X0046297Y0119186D02*
X0045546Y0118435D01*
X0045546Y0116183D01*
X0050050Y0116183D01*
X0050050Y0118435D01*
X0049299Y0119186D01*
X0046297Y0119186D01*
X0037312Y0117594D02*
X0037312Y0117201D01*
X0032981Y0117201D01*
X0032981Y0100272D01*
X0037312Y0100272D01*
X0018414Y0107752D02*
X0018414Y0110114D01*
X0006997Y0110114D01*
X0006997Y0107752D02*
X0018414Y0107752D01*
D16*
X0056800Y0118433D03*
D17*
X0056800Y0112183D03*
X0056800Y0135683D03*
D18*
X0026131Y0217831D02*
X0026133Y0217882D01*
X0026139Y0217933D01*
X0026149Y0217983D01*
X0026162Y0218033D01*
X0026180Y0218081D01*
X0026200Y0218128D01*
X0026225Y0218173D01*
X0026253Y0218216D01*
X0026284Y0218257D01*
X0026318Y0218295D01*
X0026355Y0218330D01*
X0026394Y0218363D01*
X0026436Y0218393D01*
X0026480Y0218419D01*
X0026526Y0218441D01*
X0026574Y0218461D01*
X0026623Y0218476D01*
X0026673Y0218488D01*
X0026723Y0218496D01*
X0026774Y0218500D01*
X0026826Y0218500D01*
X0026877Y0218496D01*
X0026927Y0218488D01*
X0026977Y0218476D01*
X0027026Y0218461D01*
X0027074Y0218441D01*
X0027120Y0218419D01*
X0027164Y0218393D01*
X0027206Y0218363D01*
X0027245Y0218330D01*
X0027282Y0218295D01*
X0027316Y0218257D01*
X0027347Y0218216D01*
X0027375Y0218173D01*
X0027400Y0218128D01*
X0027420Y0218081D01*
X0027438Y0218033D01*
X0027451Y0217983D01*
X0027461Y0217933D01*
X0027467Y0217882D01*
X0027469Y0217831D01*
X0027467Y0217780D01*
X0027461Y0217729D01*
X0027451Y0217679D01*
X0027438Y0217629D01*
X0027420Y0217581D01*
X0027400Y0217534D01*
X0027375Y0217489D01*
X0027347Y0217446D01*
X0027316Y0217405D01*
X0027282Y0217367D01*
X0027245Y0217332D01*
X0027206Y0217299D01*
X0027164Y0217269D01*
X0027120Y0217243D01*
X0027074Y0217221D01*
X0027026Y0217201D01*
X0026977Y0217186D01*
X0026927Y0217174D01*
X0026877Y0217166D01*
X0026826Y0217162D01*
X0026774Y0217162D01*
X0026723Y0217166D01*
X0026673Y0217174D01*
X0026623Y0217186D01*
X0026574Y0217201D01*
X0026526Y0217221D01*
X0026480Y0217243D01*
X0026436Y0217269D01*
X0026394Y0217299D01*
X0026355Y0217332D01*
X0026318Y0217367D01*
X0026284Y0217405D01*
X0026253Y0217446D01*
X0026225Y0217489D01*
X0026200Y0217534D01*
X0026180Y0217581D01*
X0026162Y0217629D01*
X0026149Y0217679D01*
X0026139Y0217729D01*
X0026133Y0217780D01*
X0026131Y0217831D01*
D19*
X0037250Y0114466D02*
X0037250Y0111196D01*
X0035615Y0112831D02*
X0038885Y0112831D01*
X0036462Y0106927D02*
X0036462Y0103657D01*
D20*
X0450300Y0206933D03*
D21*
X0456550Y0206933D03*
X0433050Y0206933D03*
M02*
