%
M48
M72
T01C0.0315
T02C0.0354
T03C0.0394
T04C0.0440
T05C0.1102
T06C0.1180
%
T01
X3180Y10500
X3180Y11287
T02
X20180Y6393
X21180Y6393
X22180Y6393
X23180Y6393
X24180Y6393
X25180Y6393
X29180Y9393
X30180Y9393
X30180Y10393
X29180Y10393
X29180Y11393
X30180Y11393
X30180Y12393
X29180Y12393
X29180Y13393
X30180Y13393
X30180Y14393
X29180Y14393
X29180Y15393
X30180Y15393
X30180Y16393
X29180Y16393
X29180Y17393
X30180Y17393
X30180Y18393
X29180Y18393
X39180Y18393
X40180Y18393
X40180Y17393
X39180Y17393
X39180Y16393
X40180Y16393
X40180Y15393
X39180Y15393
X39180Y14393
X40180Y14393
X40180Y13393
X39180Y13393
X39180Y12393
X40180Y12393
X40180Y11393
X39180Y11393
X39180Y10393
X40180Y10393
X40180Y9393
X39180Y9393
T03
X37730Y8893
X37730Y9893
X37730Y10893
X37730Y11893
X37730Y12893
X31730Y12893
X31730Y11893
X31730Y10893
X31730Y9893
X31730Y8893
X31730Y7893
X31730Y6893
X37730Y6893
X37730Y7893
X43280Y17143
X44280Y17143
X45280Y17143
X26180Y24393
X25180Y24393
X24180Y24393
X23180Y24393
X22180Y24393
X15180Y23393
X14180Y23393
X13180Y23393
X12180Y23393
X11180Y23393
X10180Y23393
X10180Y22393
X11180Y22393
X12180Y22393
X13180Y22393
X14180Y22393
X15180Y22393
X15180Y19393
X14180Y19393
X13180Y19393
X12180Y19393
X11180Y19393
X10180Y19393
X10180Y18393
X11180Y18393
X12180Y18393
X13180Y18393
X14180Y18393
X15180Y18393
X15680Y14393
X15680Y13393
X15680Y12393
X15680Y11393
X15680Y10393
X13680Y8893
X12680Y8893
X11680Y8893
X10680Y8893
X8180Y10393
X8180Y11393
X8180Y12393
X8180Y13393
X8180Y14393
X11680Y13893
X12680Y13893
X2680Y19893
X3625Y20681
X5790Y20681
T04
X5680Y14393
X5680Y10393
X42480Y20693
X46480Y20693
T05
X1980Y6393
X8930Y16143
X14930Y16143
X1980Y24393
X46380Y24393
X46380Y6393
T06
X44749Y9793
X42386Y9793
X43567Y11644
M30
