G75*
%MOIN*%
%OFA0B0*%
%FSLAX25Y25*%
%IPPOS*%
%LPD*%
%AMOC8*
5,1,8,0,0,1.08239X$1,22.5*
%
%ADD10C,0.07600*%
%ADD11C,0.17000*%
%ADD12C,0.05937*%
%ADD13R,0.05937X0.05937*%
%ADD14C,0.05543*%
%ADD15C,0.01200*%
%ADD16C,0.05937*%
%ADD17C,0.05600*%
%ADD18R,0.05543X0.05543*%
%ADD19C,0.01500*%
%ADD20C,0.01600*%
D10*
X0056800Y0103933D03*
X0056800Y0143933D03*
X0221800Y0243933D03*
X0231800Y0243933D03*
X0241800Y0243933D03*
X0251800Y0243933D03*
X0261800Y0243933D03*
X0424800Y0206933D03*
X0464800Y0206933D03*
D11*
X0435674Y0116437D03*
X0423863Y0097933D03*
X0447485Y0097933D03*
D12*
X0377300Y0098933D03*
X0377300Y0088933D03*
X0377300Y0078933D03*
X0377300Y0068933D03*
X0317300Y0068933D03*
X0317300Y0078933D03*
X0317300Y0088933D03*
X0317300Y0098933D03*
X0317300Y0108933D03*
X0317300Y0118933D03*
X0317300Y0128933D03*
X0377300Y0128933D03*
X0377300Y0118933D03*
X0377300Y0108933D03*
X0156800Y0103933D03*
X0156800Y0113933D03*
X0156800Y0123933D03*
X0156800Y0133933D03*
X0126800Y0138933D03*
X0116800Y0138933D03*
X0081800Y0133933D03*
X0081800Y0123933D03*
X0081800Y0113933D03*
X0081800Y0103933D03*
X0106800Y0088933D03*
X0116800Y0088933D03*
X0126800Y0088933D03*
X0136800Y0088933D03*
X0131800Y0183933D03*
X0121800Y0183933D03*
X0111800Y0183933D03*
X0111800Y0193933D03*
X0101800Y0193933D03*
X0131800Y0193933D03*
X0141800Y0193933D03*
X0151800Y0193933D03*
X0151800Y0183933D03*
X0141800Y0183933D03*
X0141800Y0223933D03*
X0131800Y0223933D03*
X0121800Y0223933D03*
X0111800Y0223933D03*
X0111800Y0233933D03*
X0101800Y0233933D03*
X0131800Y0233933D03*
X0141800Y0233933D03*
X0151800Y0233933D03*
X0151800Y0223933D03*
D13*
X0121800Y0233933D03*
X0101800Y0223933D03*
X0121800Y0193933D03*
X0101800Y0183933D03*
X0081800Y0143933D03*
X0156800Y0143933D03*
X0432800Y0171433D03*
X0442800Y0171433D03*
X0452800Y0171433D03*
D14*
X0401800Y0173933D03*
X0391800Y0173933D03*
X0391800Y0163933D03*
X0401800Y0163933D03*
X0401800Y0153933D03*
X0391800Y0153933D03*
X0391800Y0143933D03*
X0401800Y0143933D03*
X0401800Y0133933D03*
X0391800Y0133933D03*
X0391800Y0123933D03*
X0401800Y0123933D03*
X0401800Y0113933D03*
X0391800Y0113933D03*
X0391800Y0103933D03*
X0401800Y0103933D03*
X0391800Y0093933D03*
X0301800Y0103933D03*
X0291800Y0103933D03*
X0291800Y0093933D03*
X0291800Y0113933D03*
X0301800Y0113933D03*
X0301800Y0123933D03*
X0291800Y0123933D03*
X0291800Y0133933D03*
X0301800Y0133933D03*
X0301800Y0143933D03*
X0291800Y0143933D03*
X0291800Y0153933D03*
X0301800Y0153933D03*
X0301800Y0163933D03*
X0291800Y0163933D03*
X0291800Y0173933D03*
X0301800Y0173933D03*
X0301800Y0183933D03*
X0291800Y0183933D03*
X0391800Y0183933D03*
X0401800Y0183933D03*
X0251800Y0063933D03*
X0241800Y0063933D03*
X0231800Y0063933D03*
X0221800Y0063933D03*
X0211800Y0063933D03*
X0201800Y0063933D03*
D15*
X0231800Y0063933D02*
X0235200Y0063933D01*
X0255000Y0083733D01*
X0342000Y0083733D01*
X0376800Y0118533D01*
X0377300Y0118933D01*
X0372000Y0123933D02*
X0376800Y0128733D01*
X0377300Y0128933D01*
X0372000Y0123933D02*
X0315000Y0123933D01*
X0310200Y0119133D01*
X0289800Y0119133D01*
X0270000Y0138933D01*
X0154800Y0138933D01*
X0139800Y0123933D01*
X0081800Y0123933D01*
X0069600Y0128733D02*
X0141000Y0128733D01*
X0156600Y0144333D01*
X0156800Y0143933D01*
X0153000Y0149133D02*
X0270000Y0149133D01*
X0289800Y0129333D01*
X0316800Y0129333D01*
X0317300Y0128933D01*
X0317400Y0129333D01*
X0322200Y0134133D01*
X0391800Y0134133D01*
X0391800Y0133933D01*
X0301800Y0163533D02*
X0297600Y0159333D01*
X0159600Y0159333D01*
X0144600Y0144333D01*
X0082200Y0144333D01*
X0081800Y0143933D01*
X0082200Y0134133D02*
X0081800Y0133933D01*
X0082200Y0134133D02*
X0138000Y0134133D01*
X0153000Y0149133D01*
X0156800Y0133933D02*
X0156600Y0133533D01*
X0142200Y0119133D01*
X0063600Y0119133D01*
X0049800Y0105333D01*
X0031800Y0105333D01*
X0031800Y0104996D01*
X0031800Y0112870D02*
X0031800Y0113133D01*
X0054000Y0113133D01*
X0069600Y0128733D01*
X0111800Y0183933D02*
X0101800Y0193933D01*
X0111800Y0193933D02*
X0121800Y0183933D01*
X0131800Y0183933D02*
X0141800Y0193933D01*
X0151800Y0193933D02*
X0141800Y0183933D01*
X0141800Y0223933D02*
X0151800Y0233933D01*
X0141800Y0233933D02*
X0131800Y0223933D01*
X0121800Y0223933D02*
X0111800Y0233933D01*
X0101800Y0233933D02*
X0111800Y0223933D01*
X0301800Y0163933D02*
X0301800Y0163533D01*
D16*
X0057902Y0203839D02*
X0057902Y0209776D01*
X0036249Y0209776D02*
X0036249Y0203839D01*
X0026800Y0201902D02*
X0026800Y0195965D01*
D17*
X0031800Y0112870D03*
X0031800Y0104996D03*
D18*
X0301800Y0093933D03*
X0401800Y0093933D03*
D19*
X0387000Y0101133D02*
X0387000Y0118533D01*
X0391800Y0123333D01*
X0391800Y0123933D01*
X0391800Y0126933D01*
X0396600Y0131733D01*
X0396600Y0179133D01*
X0299400Y0179133D01*
X0294600Y0183933D01*
X0291800Y0183933D01*
X0233400Y0235533D02*
X0241800Y0243933D01*
X0245400Y0249933D02*
X0251400Y0243933D01*
X0251800Y0243933D01*
X0245400Y0249933D02*
X0140400Y0249933D01*
X0124800Y0234333D01*
X0121800Y0234333D01*
X0121800Y0233933D01*
X0121200Y0234333D01*
X0116400Y0239133D01*
X0099600Y0239133D01*
X0096600Y0236133D01*
X0096600Y0235533D01*
X0057000Y0195933D01*
X0057000Y0144333D01*
X0056800Y0143933D01*
X0081800Y0113933D02*
X0082200Y0113733D01*
X0139800Y0113733D01*
X0189000Y0064533D01*
X0201600Y0064533D01*
X0201800Y0063933D01*
X0204600Y0063933D01*
X0209400Y0059133D01*
X0297000Y0059133D01*
X0316800Y0078933D01*
X0317300Y0078933D01*
X0360000Y0078933D01*
X0375000Y0093933D01*
X0379800Y0093933D01*
X0387000Y0101133D01*
X0391800Y0113933D02*
X0391800Y0114333D01*
X0395400Y0114333D01*
X0400200Y0119133D01*
X0403800Y0119133D01*
X0452400Y0167733D01*
X0452400Y0171333D01*
X0452800Y0171433D01*
X0451800Y0171333D01*
X0379200Y0243933D01*
X0261800Y0243933D01*
X0233400Y0235533D02*
X0157200Y0235533D01*
X0157200Y0189333D01*
X0151800Y0183933D01*
X0135000Y0234333D02*
X0139800Y0239133D01*
X0153600Y0239133D01*
X0157200Y0235533D01*
X0135000Y0234333D02*
X0132000Y0234333D01*
X0131800Y0233933D01*
X0297000Y0108933D02*
X0301800Y0113733D01*
X0301800Y0113933D01*
X0300600Y0111933D01*
X0306600Y0105933D01*
X0306600Y0102333D01*
X0316800Y0092133D01*
X0316800Y0089133D01*
X0317300Y0088933D01*
X0297000Y0108933D02*
X0259800Y0108933D01*
X0214800Y0063933D01*
X0211800Y0063933D01*
X0429600Y0183333D02*
X0441000Y0171933D01*
X0442800Y0171933D01*
X0442800Y0171433D01*
X0429600Y0183333D02*
X0402000Y0183333D01*
X0401800Y0183933D01*
X0401400Y0183933D01*
X0396600Y0179133D01*
D20*
X0027864Y0058545D02*
X0027252Y0057933D01*
X0208590Y0057933D01*
X0207964Y0058192D01*
X0206059Y0060097D01*
X0205642Y0061104D01*
X0205440Y0060825D01*
X0204909Y0060293D01*
X0204301Y0059852D01*
X0203632Y0059511D01*
X0202917Y0059279D01*
X0202176Y0059161D01*
X0201886Y0059161D01*
X0201886Y0063847D01*
X0201886Y0064019D01*
X0205028Y0064019D01*
X0205028Y0063847D01*
X0201886Y0063847D01*
X0201714Y0063847D01*
X0201714Y0059161D01*
X0201424Y0059161D01*
X0200683Y0059279D01*
X0199968Y0059511D01*
X0199299Y0059852D01*
X0198691Y0060293D01*
X0198160Y0060825D01*
X0197719Y0061432D01*
X0197378Y0062101D01*
X0197146Y0062816D01*
X0197028Y0063558D01*
X0197028Y0063847D01*
X0201714Y0063847D01*
X0201714Y0064019D01*
X0197028Y0064019D01*
X0197028Y0064309D01*
X0197146Y0065050D01*
X0197378Y0065765D01*
X0197719Y0066434D01*
X0198160Y0067042D01*
X0198691Y0067573D01*
X0199299Y0068014D01*
X0199968Y0068355D01*
X0200683Y0068587D01*
X0201424Y0068705D01*
X0201714Y0068705D01*
X0201714Y0064019D01*
X0201886Y0064019D01*
X0201886Y0068705D01*
X0202176Y0068705D01*
X0202917Y0068587D01*
X0203632Y0068355D01*
X0204301Y0068014D01*
X0204909Y0067573D01*
X0205440Y0067042D01*
X0205642Y0066762D01*
X0206059Y0067769D01*
X0207964Y0069674D01*
X0210453Y0070705D01*
X0213147Y0070705D01*
X0214354Y0070205D01*
X0255773Y0111624D01*
X0257109Y0112960D01*
X0258855Y0113683D01*
X0285028Y0113683D01*
X0285028Y0115280D01*
X0285649Y0116779D01*
X0268095Y0134333D01*
X0163768Y0134333D01*
X0163768Y0132547D01*
X0162708Y0129986D01*
X0161655Y0128933D01*
X0162708Y0127880D01*
X0163768Y0125319D01*
X0163768Y0122547D01*
X0162708Y0119986D01*
X0161655Y0118933D01*
X0162708Y0117880D01*
X0163768Y0115319D01*
X0163768Y0112547D01*
X0162708Y0109986D01*
X0161655Y0108933D01*
X0162708Y0107880D01*
X0163768Y0105319D01*
X0163768Y0102547D01*
X0162708Y0099986D01*
X0160747Y0098025D01*
X0158186Y0096965D01*
X0155414Y0096965D01*
X0152853Y0098025D01*
X0150892Y0099986D01*
X0149831Y0102547D01*
X0149831Y0105319D01*
X0150892Y0107880D01*
X0151945Y0108933D01*
X0150892Y0109986D01*
X0149831Y0112547D01*
X0149831Y0115319D01*
X0150892Y0117880D01*
X0151945Y0118933D01*
X0150892Y0119986D01*
X0150502Y0120929D01*
X0144806Y0115233D01*
X0143115Y0114533D01*
X0086735Y0114533D01*
X0086768Y0114324D01*
X0086768Y0114117D01*
X0081984Y0114117D01*
X0081984Y0113749D01*
X0086768Y0113749D01*
X0086768Y0113542D01*
X0086646Y0112770D01*
X0086404Y0112026D01*
X0086049Y0111329D01*
X0085590Y0110696D01*
X0085037Y0110143D01*
X0085029Y0110138D01*
X0085747Y0109841D01*
X0087708Y0107880D01*
X0088768Y0105319D01*
X0088768Y0102547D01*
X0087708Y0099986D01*
X0085747Y0098025D01*
X0083186Y0096965D01*
X0080414Y0096965D01*
X0077853Y0098025D01*
X0075892Y0099986D01*
X0074831Y0102547D01*
X0074831Y0105319D01*
X0075892Y0107880D01*
X0077853Y0109841D01*
X0078571Y0110138D01*
X0078563Y0110143D01*
X0078010Y0110696D01*
X0077551Y0111329D01*
X0077196Y0112026D01*
X0076954Y0112770D01*
X0076831Y0113542D01*
X0076831Y0113749D01*
X0081616Y0113749D01*
X0081616Y0114117D01*
X0076831Y0114117D01*
X0076831Y0114324D01*
X0076865Y0114533D01*
X0065505Y0114533D01*
X0061368Y0110396D01*
X0063413Y0108351D01*
X0064600Y0105485D01*
X0064600Y0102382D01*
X0063413Y0099515D01*
X0061218Y0097321D01*
X0058352Y0096133D01*
X0055248Y0096133D01*
X0052382Y0097321D01*
X0050187Y0099515D01*
X0049683Y0100733D01*
X0037154Y0100733D01*
X0035652Y0099231D01*
X0033153Y0098196D01*
X0030447Y0098196D01*
X0027948Y0099231D01*
X0026035Y0101144D01*
X0025000Y0103643D01*
X0025000Y0106349D01*
X0026035Y0108848D01*
X0026120Y0108933D01*
X0026035Y0109018D01*
X0025000Y0111517D01*
X0025000Y0114223D01*
X0026035Y0116722D01*
X0027948Y0118635D01*
X0030447Y0119670D01*
X0033153Y0119670D01*
X0035652Y0118635D01*
X0036554Y0117733D01*
X0052095Y0117733D01*
X0065700Y0131339D01*
X0066994Y0132633D01*
X0068685Y0133333D01*
X0074831Y0133333D01*
X0074831Y0135319D01*
X0075892Y0137880D01*
X0076076Y0138064D01*
X0075440Y0138699D01*
X0074831Y0140169D01*
X0074831Y0147697D01*
X0075440Y0149167D01*
X0076566Y0150293D01*
X0078036Y0150902D01*
X0085564Y0150902D01*
X0087034Y0150293D01*
X0088160Y0149167D01*
X0088257Y0148933D01*
X0142695Y0148933D01*
X0146188Y0152427D01*
X0143912Y0153369D01*
X0141236Y0156045D01*
X0139788Y0159541D01*
X0139788Y0163325D01*
X0141236Y0166821D01*
X0143912Y0169497D01*
X0147408Y0170945D01*
X0151192Y0170945D01*
X0154688Y0169497D01*
X0157364Y0166821D01*
X0158578Y0163889D01*
X0158685Y0163933D01*
X0285028Y0163933D01*
X0285028Y0165280D01*
X0286059Y0167769D01*
X0287223Y0168933D01*
X0286059Y0170097D01*
X0285028Y0172586D01*
X0285028Y0175280D01*
X0286059Y0177769D01*
X0287964Y0179674D01*
X0288971Y0180091D01*
X0288691Y0180293D01*
X0288160Y0180825D01*
X0287719Y0181432D01*
X0287378Y0182101D01*
X0287146Y0182816D01*
X0287028Y0183558D01*
X0287028Y0183847D01*
X0291714Y0183847D01*
X0291714Y0184019D01*
X0287028Y0184019D01*
X0287028Y0184309D01*
X0287146Y0185050D01*
X0287378Y0185765D01*
X0287719Y0186434D01*
X0288160Y0187042D01*
X0288691Y0187573D01*
X0289299Y0188014D01*
X0289968Y0188355D01*
X0290683Y0188587D01*
X0291424Y0188705D01*
X0291714Y0188705D01*
X0291714Y0184019D01*
X0291886Y0184019D01*
X0295028Y0184019D01*
X0295028Y0183847D01*
X0291886Y0183847D01*
X0291886Y0184019D01*
X0291886Y0188705D01*
X0292176Y0188705D01*
X0292917Y0188587D01*
X0293632Y0188355D01*
X0294301Y0188014D01*
X0294909Y0187573D01*
X0295440Y0187042D01*
X0295642Y0186762D01*
X0296059Y0187769D01*
X0297964Y0189674D01*
X0300453Y0190705D01*
X0302550Y0190705D01*
X0302550Y0214778D01*
X0303197Y0216340D01*
X0304393Y0217536D01*
X0305955Y0218183D01*
X0387645Y0218183D01*
X0389207Y0217536D01*
X0390403Y0216340D01*
X0391050Y0214778D01*
X0391050Y0190705D01*
X0393147Y0190705D01*
X0395636Y0189674D01*
X0397541Y0187769D01*
X0397958Y0186762D01*
X0398160Y0187042D01*
X0398691Y0187573D01*
X0399299Y0188014D01*
X0399968Y0188355D01*
X0400683Y0188587D01*
X0401424Y0188705D01*
X0401714Y0188705D01*
X0401714Y0184019D01*
X0398572Y0184019D01*
X0398572Y0183847D01*
X0401714Y0183847D01*
X0401714Y0184019D01*
X0401886Y0184019D01*
X0406572Y0184019D01*
X0406572Y0184309D01*
X0406454Y0185050D01*
X0406222Y0185765D01*
X0405881Y0186434D01*
X0405440Y0187042D01*
X0404909Y0187573D01*
X0404301Y0188014D01*
X0403632Y0188355D01*
X0402917Y0188587D01*
X0402176Y0188705D01*
X0401886Y0188705D01*
X0401886Y0184019D01*
X0401886Y0183847D01*
X0406572Y0183847D01*
X0406572Y0183558D01*
X0406454Y0182816D01*
X0406222Y0182101D01*
X0405881Y0181432D01*
X0405440Y0180825D01*
X0404909Y0180293D01*
X0404629Y0180091D01*
X0405636Y0179674D01*
X0407541Y0177769D01*
X0408572Y0175280D01*
X0408572Y0172586D01*
X0407541Y0170097D01*
X0406377Y0168933D01*
X0407541Y0167769D01*
X0408572Y0165280D01*
X0408572Y0162586D01*
X0407541Y0160097D01*
X0406377Y0158933D01*
X0407541Y0157769D01*
X0408572Y0155280D01*
X0408572Y0152586D01*
X0407541Y0150097D01*
X0406377Y0148933D01*
X0407541Y0147769D01*
X0408572Y0145280D01*
X0408572Y0142586D01*
X0407541Y0140097D01*
X0406377Y0138933D01*
X0407541Y0137769D01*
X0408572Y0135280D01*
X0408572Y0132586D01*
X0407541Y0130097D01*
X0406377Y0128933D01*
X0406630Y0128680D01*
X0444414Y0166465D01*
X0442984Y0166465D01*
X0442984Y0171249D01*
X0442616Y0171249D01*
X0442616Y0166465D01*
X0439568Y0166465D01*
X0439299Y0166537D01*
X0439160Y0166199D01*
X0438034Y0165074D01*
X0436564Y0164465D01*
X0429036Y0164465D01*
X0427566Y0165074D01*
X0426440Y0166199D01*
X0425831Y0167669D01*
X0425831Y0175197D01*
X0426440Y0176667D01*
X0427566Y0177793D01*
X0429036Y0178402D01*
X0436564Y0178402D01*
X0438034Y0177793D01*
X0439160Y0176667D01*
X0439299Y0176330D01*
X0439568Y0176402D01*
X0440014Y0176402D01*
X0377232Y0239183D01*
X0268081Y0239183D01*
X0266218Y0237321D01*
X0263352Y0236133D01*
X0260248Y0236133D01*
X0257382Y0237321D01*
X0256800Y0237902D01*
X0256218Y0237321D01*
X0253352Y0236133D01*
X0250248Y0236133D01*
X0247382Y0237321D01*
X0245355Y0239347D01*
X0244840Y0238972D01*
X0244026Y0238558D01*
X0243158Y0238276D01*
X0242256Y0238133D01*
X0241984Y0238133D01*
X0241984Y0243749D01*
X0241616Y0243749D01*
X0241616Y0238133D01*
X0241344Y0238133D01*
X0240442Y0238276D01*
X0239574Y0238558D01*
X0238760Y0238972D01*
X0238245Y0239347D01*
X0236218Y0237321D01*
X0233352Y0236133D01*
X0230248Y0236133D01*
X0227382Y0237321D01*
X0226800Y0237902D01*
X0226218Y0237321D01*
X0223352Y0236133D01*
X0220248Y0236133D01*
X0217382Y0237321D01*
X0215187Y0239515D01*
X0214000Y0242382D01*
X0214000Y0245183D01*
X0142368Y0245183D01*
X0134962Y0237777D01*
X0135037Y0237723D01*
X0135590Y0237170D01*
X0135595Y0237163D01*
X0135892Y0237880D01*
X0137853Y0239841D01*
X0140414Y0240902D01*
X0143186Y0240902D01*
X0145747Y0239841D01*
X0146800Y0238788D01*
X0147853Y0239841D01*
X0150414Y0240902D01*
X0153186Y0240902D01*
X0155747Y0239841D01*
X0157708Y0237880D01*
X0158768Y0235319D01*
X0158768Y0232547D01*
X0157708Y0229986D01*
X0156655Y0228933D01*
X0157708Y0227880D01*
X0158768Y0225319D01*
X0158768Y0222547D01*
X0157708Y0219986D01*
X0155747Y0218025D01*
X0153186Y0216965D01*
X0150414Y0216965D01*
X0147853Y0218025D01*
X0146800Y0219078D01*
X0145747Y0218025D01*
X0143186Y0216965D01*
X0140414Y0216965D01*
X0137853Y0218025D01*
X0136800Y0219078D01*
X0135747Y0218025D01*
X0133186Y0216965D01*
X0130414Y0216965D01*
X0127853Y0218025D01*
X0126800Y0219078D01*
X0125747Y0218025D01*
X0123186Y0216965D01*
X0120414Y0216965D01*
X0117853Y0218025D01*
X0116800Y0219078D01*
X0115747Y0218025D01*
X0113186Y0216965D01*
X0110414Y0216965D01*
X0107853Y0218025D01*
X0107669Y0218209D01*
X0107034Y0217574D01*
X0105564Y0216965D01*
X0098036Y0216965D01*
X0096566Y0217574D01*
X0095440Y0218699D01*
X0094831Y0220169D01*
X0094831Y0227047D01*
X0061750Y0193966D01*
X0061750Y0150014D01*
X0063413Y0148351D01*
X0064600Y0145485D01*
X0064600Y0142382D01*
X0063413Y0139515D01*
X0061218Y0137321D01*
X0058352Y0136133D01*
X0055248Y0136133D01*
X0052382Y0137321D01*
X0050187Y0139515D01*
X0049000Y0142382D01*
X0049000Y0145485D01*
X0050187Y0148351D01*
X0052250Y0150414D01*
X0052250Y0196878D01*
X0052973Y0198624D01*
X0053118Y0198768D01*
X0051995Y0199891D01*
X0050934Y0202452D01*
X0050934Y0211162D01*
X0051995Y0213723D01*
X0053955Y0215683D01*
X0056516Y0216744D01*
X0059288Y0216744D01*
X0061850Y0215683D01*
X0063810Y0213723D01*
X0064871Y0211162D01*
X0064871Y0210521D01*
X0092149Y0237799D01*
X0092573Y0238824D01*
X0095573Y0241824D01*
X0096909Y0243160D01*
X0098655Y0243883D01*
X0117345Y0243883D01*
X0119091Y0243160D01*
X0121349Y0240902D01*
X0124651Y0240902D01*
X0133683Y0249933D01*
X0027252Y0249933D01*
X0027864Y0249321D01*
X0029312Y0245825D01*
X0029312Y0242041D01*
X0027864Y0238545D01*
X0025188Y0235869D01*
X0021692Y0234421D01*
X0017908Y0234421D01*
X0014412Y0235869D01*
X0011736Y0238545D01*
X0010300Y0242013D01*
X0010300Y0065854D01*
X0011736Y0069321D01*
X0014412Y0071997D01*
X0017908Y0073445D01*
X0021692Y0073445D01*
X0025188Y0071997D01*
X0027864Y0069321D01*
X0029312Y0065825D01*
X0029312Y0062041D01*
X0027864Y0058545D01*
X0027341Y0058022D02*
X0208374Y0058022D01*
X0206536Y0059621D02*
X0203847Y0059621D01*
X0201886Y0059621D02*
X0201714Y0059621D01*
X0201714Y0061219D02*
X0201886Y0061219D01*
X0201886Y0062818D02*
X0201714Y0062818D01*
X0201714Y0064416D02*
X0201886Y0064416D01*
X0201886Y0066015D02*
X0201714Y0066015D01*
X0201714Y0067613D02*
X0201886Y0067613D01*
X0204852Y0067613D02*
X0205995Y0067613D01*
X0207502Y0069212D02*
X0027909Y0069212D01*
X0028571Y0067613D02*
X0198748Y0067613D01*
X0197505Y0066015D02*
X0029233Y0066015D01*
X0029312Y0064416D02*
X0197045Y0064416D01*
X0197145Y0062818D02*
X0029312Y0062818D01*
X0028971Y0061219D02*
X0197873Y0061219D01*
X0199753Y0059621D02*
X0028309Y0059621D01*
X0011029Y0067613D02*
X0010300Y0067613D01*
X0010300Y0066015D02*
X0010367Y0066015D01*
X0010300Y0069212D02*
X0011691Y0069212D01*
X0010300Y0070810D02*
X0013226Y0070810D01*
X0015407Y0072409D02*
X0010300Y0072409D01*
X0010300Y0074008D02*
X0218157Y0074008D01*
X0219755Y0075606D02*
X0010300Y0075606D01*
X0010300Y0077205D02*
X0221354Y0077205D01*
X0222952Y0078803D02*
X0010300Y0078803D01*
X0010300Y0080402D02*
X0224551Y0080402D01*
X0226149Y0082000D02*
X0138272Y0082000D01*
X0138186Y0081965D02*
X0140747Y0083025D01*
X0142708Y0084986D01*
X0143768Y0087547D01*
X0143768Y0090319D01*
X0142708Y0092880D01*
X0140747Y0094841D01*
X0138186Y0095902D01*
X0135414Y0095902D01*
X0132853Y0094841D01*
X0131800Y0093788D01*
X0130747Y0094841D01*
X0128186Y0095902D01*
X0125414Y0095902D01*
X0122853Y0094841D01*
X0121800Y0093788D01*
X0120747Y0094841D01*
X0118186Y0095902D01*
X0115414Y0095902D01*
X0112853Y0094841D01*
X0111800Y0093788D01*
X0110747Y0094841D01*
X0108186Y0095902D01*
X0105414Y0095902D01*
X0102853Y0094841D01*
X0100892Y0092880D01*
X0099831Y0090319D01*
X0099831Y0087547D01*
X0100892Y0084986D01*
X0102853Y0083025D01*
X0105414Y0081965D01*
X0108186Y0081965D01*
X0110747Y0083025D01*
X0111800Y0084078D01*
X0112853Y0083025D01*
X0115414Y0081965D01*
X0118186Y0081965D01*
X0120747Y0083025D01*
X0121800Y0084078D01*
X0122853Y0083025D01*
X0125414Y0081965D01*
X0128186Y0081965D01*
X0130747Y0083025D01*
X0131800Y0084078D01*
X0132853Y0083025D01*
X0135414Y0081965D01*
X0138186Y0081965D01*
X0135328Y0082000D02*
X0128272Y0082000D01*
X0125328Y0082000D02*
X0118272Y0082000D01*
X0115328Y0082000D02*
X0108272Y0082000D01*
X0105328Y0082000D02*
X0010300Y0082000D01*
X0010300Y0083599D02*
X0102280Y0083599D01*
X0100805Y0085197D02*
X0010300Y0085197D01*
X0010300Y0086796D02*
X0100143Y0086796D01*
X0099831Y0088394D02*
X0010300Y0088394D01*
X0010300Y0089993D02*
X0099831Y0089993D01*
X0100358Y0091591D02*
X0010300Y0091591D01*
X0010300Y0093190D02*
X0101202Y0093190D01*
X0102800Y0094788D02*
X0010300Y0094788D01*
X0010300Y0096387D02*
X0054636Y0096387D01*
X0051717Y0097985D02*
X0010300Y0097985D01*
X0010300Y0099584D02*
X0027596Y0099584D01*
X0026019Y0101182D02*
X0010300Y0101182D01*
X0010300Y0102781D02*
X0025357Y0102781D01*
X0025000Y0104379D02*
X0010300Y0104379D01*
X0010300Y0105978D02*
X0025000Y0105978D01*
X0025508Y0107576D02*
X0010300Y0107576D01*
X0010300Y0109175D02*
X0025970Y0109175D01*
X0025308Y0110773D02*
X0010300Y0110773D01*
X0010300Y0112372D02*
X0025000Y0112372D01*
X0025000Y0113970D02*
X0010300Y0113970D01*
X0010300Y0115569D02*
X0025558Y0115569D01*
X0026481Y0117167D02*
X0010300Y0117167D01*
X0010300Y0118766D02*
X0028264Y0118766D01*
X0035336Y0118766D02*
X0053127Y0118766D01*
X0054726Y0120364D02*
X0010300Y0120364D01*
X0010300Y0121963D02*
X0056324Y0121963D01*
X0057923Y0123561D02*
X0010300Y0123561D01*
X0010300Y0125160D02*
X0059521Y0125160D01*
X0061120Y0126758D02*
X0010300Y0126758D01*
X0010300Y0128357D02*
X0062718Y0128357D01*
X0064317Y0129955D02*
X0010300Y0129955D01*
X0010300Y0131554D02*
X0065915Y0131554D01*
X0068249Y0133152D02*
X0010300Y0133152D01*
X0010300Y0134751D02*
X0074831Y0134751D01*
X0075258Y0136349D02*
X0058874Y0136349D01*
X0061846Y0137948D02*
X0075960Y0137948D01*
X0075089Y0139546D02*
X0063426Y0139546D01*
X0064088Y0141145D02*
X0074831Y0141145D01*
X0074831Y0142743D02*
X0064600Y0142743D01*
X0064600Y0144342D02*
X0074831Y0144342D01*
X0074831Y0145941D02*
X0064411Y0145941D01*
X0063749Y0147539D02*
X0074831Y0147539D01*
X0075428Y0149138D02*
X0062626Y0149138D01*
X0061750Y0150736D02*
X0077636Y0150736D01*
X0081236Y0156045D02*
X0083912Y0153369D01*
X0087408Y0151921D01*
X0091192Y0151921D01*
X0094688Y0153369D01*
X0097364Y0156045D01*
X0098812Y0159541D01*
X0098812Y0163325D01*
X0097364Y0166821D01*
X0094688Y0169497D01*
X0091192Y0170945D01*
X0087408Y0170945D01*
X0083912Y0169497D01*
X0081236Y0166821D01*
X0079788Y0163325D01*
X0079788Y0159541D01*
X0081236Y0156045D01*
X0081750Y0155532D02*
X0061750Y0155532D01*
X0061750Y0157130D02*
X0080787Y0157130D01*
X0080125Y0158729D02*
X0061750Y0158729D01*
X0061750Y0160327D02*
X0079788Y0160327D01*
X0079788Y0161926D02*
X0061750Y0161926D01*
X0061750Y0163524D02*
X0079871Y0163524D01*
X0080533Y0165123D02*
X0061750Y0165123D01*
X0061750Y0166721D02*
X0081195Y0166721D01*
X0082735Y0168320D02*
X0061750Y0168320D01*
X0061750Y0169918D02*
X0084929Y0169918D01*
X0093671Y0169918D02*
X0144929Y0169918D01*
X0142735Y0168320D02*
X0095865Y0168320D01*
X0097405Y0166721D02*
X0141195Y0166721D01*
X0140533Y0165123D02*
X0098067Y0165123D01*
X0098729Y0163524D02*
X0139871Y0163524D01*
X0139788Y0161926D02*
X0098812Y0161926D01*
X0098812Y0160327D02*
X0139788Y0160327D01*
X0140125Y0158729D02*
X0098475Y0158729D01*
X0097813Y0157130D02*
X0140787Y0157130D01*
X0141750Y0155532D02*
X0096850Y0155532D01*
X0095252Y0153933D02*
X0143348Y0153933D01*
X0146096Y0152335D02*
X0092190Y0152335D01*
X0088172Y0149138D02*
X0142899Y0149138D01*
X0144498Y0150736D02*
X0085964Y0150736D01*
X0086410Y0152335D02*
X0061750Y0152335D01*
X0061750Y0153933D02*
X0083348Y0153933D01*
X0061750Y0171517D02*
X0285471Y0171517D01*
X0285028Y0173115D02*
X0061750Y0173115D01*
X0061750Y0174714D02*
X0285028Y0174714D01*
X0285456Y0176312D02*
X0061750Y0176312D01*
X0061750Y0177911D02*
X0096228Y0177911D01*
X0096566Y0177574D02*
X0098036Y0176965D01*
X0105564Y0176965D01*
X0107034Y0177574D01*
X0107669Y0178209D01*
X0107853Y0178025D01*
X0110414Y0176965D01*
X0113186Y0176965D01*
X0115747Y0178025D01*
X0116800Y0179078D01*
X0117853Y0178025D01*
X0120414Y0176965D01*
X0123186Y0176965D01*
X0125747Y0178025D01*
X0126800Y0179078D01*
X0127853Y0178025D01*
X0130414Y0176965D01*
X0133186Y0176965D01*
X0135747Y0178025D01*
X0136800Y0179078D01*
X0137853Y0178025D01*
X0140414Y0176965D01*
X0143186Y0176965D01*
X0145747Y0178025D01*
X0147708Y0179986D01*
X0148005Y0180704D01*
X0148010Y0180696D01*
X0148563Y0180143D01*
X0149196Y0179684D01*
X0149893Y0179329D01*
X0150637Y0179087D01*
X0151409Y0178965D01*
X0151616Y0178965D01*
X0151616Y0182433D01*
X0151984Y0182433D01*
X0151984Y0178965D01*
X0152191Y0178965D01*
X0152963Y0179087D01*
X0153707Y0179329D01*
X0154404Y0179684D01*
X0155037Y0180143D01*
X0155590Y0180696D01*
X0156049Y0181329D01*
X0156404Y0182026D01*
X0156646Y0182770D01*
X0156768Y0183542D01*
X0156768Y0183749D01*
X0154773Y0183749D01*
X0155141Y0184117D01*
X0156768Y0184117D01*
X0156768Y0184324D01*
X0156646Y0185097D01*
X0156404Y0185840D01*
X0156049Y0186537D01*
X0155800Y0186880D01*
X0155800Y0188078D01*
X0157708Y0189986D01*
X0158768Y0192547D01*
X0158768Y0195319D01*
X0157708Y0197880D01*
X0155747Y0199841D01*
X0153186Y0200902D01*
X0150414Y0200902D01*
X0147853Y0199841D01*
X0146800Y0198788D01*
X0145747Y0199841D01*
X0143186Y0200902D01*
X0140414Y0200902D01*
X0137853Y0199841D01*
X0136800Y0198788D01*
X0135747Y0199841D01*
X0133186Y0200902D01*
X0130414Y0200902D01*
X0127853Y0199841D01*
X0127669Y0199657D01*
X0127034Y0200293D01*
X0125564Y0200902D01*
X0118036Y0200902D01*
X0116566Y0200293D01*
X0115931Y0199657D01*
X0115747Y0199841D01*
X0113186Y0200902D01*
X0110414Y0200902D01*
X0107853Y0199841D01*
X0106800Y0198788D01*
X0105747Y0199841D01*
X0103186Y0200902D01*
X0100414Y0200902D01*
X0097853Y0199841D01*
X0095892Y0197880D01*
X0094831Y0195319D01*
X0094831Y0192547D01*
X0095892Y0189986D01*
X0096076Y0189803D01*
X0095440Y0189167D01*
X0094831Y0187697D01*
X0094831Y0180169D01*
X0095440Y0178699D01*
X0096566Y0177574D01*
X0095105Y0179509D02*
X0061750Y0179509D01*
X0061750Y0181108D02*
X0094831Y0181108D01*
X0094831Y0182706D02*
X0061750Y0182706D01*
X0061750Y0184305D02*
X0094831Y0184305D01*
X0094831Y0185903D02*
X0061750Y0185903D01*
X0061750Y0187502D02*
X0094831Y0187502D01*
X0095413Y0189100D02*
X0061750Y0189100D01*
X0061750Y0190699D02*
X0095597Y0190699D01*
X0094935Y0192297D02*
X0061750Y0192297D01*
X0061750Y0193896D02*
X0094831Y0193896D01*
X0094904Y0195494D02*
X0063279Y0195494D01*
X0064877Y0197093D02*
X0095566Y0197093D01*
X0096703Y0198691D02*
X0066476Y0198691D01*
X0068074Y0200290D02*
X0098937Y0200290D01*
X0104663Y0200290D02*
X0108937Y0200290D01*
X0114663Y0200290D02*
X0116563Y0200290D01*
X0127037Y0200290D02*
X0128937Y0200290D01*
X0134663Y0200290D02*
X0138937Y0200290D01*
X0144663Y0200290D02*
X0148937Y0200290D01*
X0154663Y0200290D02*
X0302550Y0200290D01*
X0302550Y0201888D02*
X0069673Y0201888D01*
X0071271Y0203487D02*
X0302550Y0203487D01*
X0302550Y0205085D02*
X0072870Y0205085D01*
X0074468Y0206684D02*
X0302550Y0206684D01*
X0302550Y0208282D02*
X0076067Y0208282D01*
X0077665Y0209881D02*
X0302550Y0209881D01*
X0302550Y0211479D02*
X0079264Y0211479D01*
X0080862Y0213078D02*
X0302550Y0213078D01*
X0302550Y0214677D02*
X0082461Y0214677D01*
X0084059Y0216275D02*
X0303170Y0216275D01*
X0305207Y0217874D02*
X0155381Y0217874D01*
X0157194Y0219472D02*
X0396944Y0219472D01*
X0398542Y0217874D02*
X0388393Y0217874D01*
X0390430Y0216275D02*
X0400141Y0216275D01*
X0401739Y0214677D02*
X0391050Y0214677D01*
X0391050Y0213078D02*
X0403338Y0213078D01*
X0404936Y0211479D02*
X0391050Y0211479D01*
X0391050Y0209881D02*
X0406535Y0209881D01*
X0408133Y0208282D02*
X0391050Y0208282D01*
X0391050Y0206684D02*
X0409732Y0206684D01*
X0411330Y0205085D02*
X0391050Y0205085D01*
X0391050Y0203487D02*
X0412929Y0203487D01*
X0414527Y0201888D02*
X0391050Y0201888D01*
X0391050Y0200290D02*
X0416126Y0200290D01*
X0417724Y0198691D02*
X0391050Y0198691D01*
X0391050Y0197093D02*
X0419323Y0197093D01*
X0420921Y0195494D02*
X0391050Y0195494D01*
X0391050Y0193896D02*
X0422520Y0193896D01*
X0424118Y0192297D02*
X0391050Y0192297D01*
X0393161Y0190699D02*
X0425717Y0190699D01*
X0427315Y0189100D02*
X0396209Y0189100D01*
X0397651Y0187502D02*
X0398621Y0187502D01*
X0401714Y0187502D02*
X0401886Y0187502D01*
X0401886Y0185903D02*
X0401714Y0185903D01*
X0401714Y0184305D02*
X0401886Y0184305D01*
X0404979Y0187502D02*
X0428914Y0187502D01*
X0430512Y0185903D02*
X0406151Y0185903D01*
X0406572Y0184305D02*
X0432111Y0184305D01*
X0433709Y0182706D02*
X0406419Y0182706D01*
X0405645Y0181108D02*
X0435308Y0181108D01*
X0436906Y0179509D02*
X0405800Y0179509D01*
X0407399Y0177911D02*
X0427851Y0177911D01*
X0426293Y0176312D02*
X0408144Y0176312D01*
X0408572Y0174714D02*
X0425831Y0174714D01*
X0425831Y0173115D02*
X0408572Y0173115D01*
X0408129Y0171517D02*
X0425831Y0171517D01*
X0425831Y0169918D02*
X0407362Y0169918D01*
X0406990Y0168320D02*
X0425831Y0168320D01*
X0426224Y0166721D02*
X0407975Y0166721D01*
X0408572Y0165123D02*
X0427517Y0165123D01*
X0438083Y0165123D02*
X0443072Y0165123D01*
X0442984Y0166721D02*
X0442616Y0166721D01*
X0442616Y0168320D02*
X0442984Y0168320D01*
X0442984Y0169918D02*
X0442616Y0169918D01*
X0442616Y0171617D02*
X0442616Y0173800D01*
X0442984Y0173431D01*
X0442984Y0171617D01*
X0442616Y0171617D01*
X0442616Y0173115D02*
X0442984Y0173115D01*
X0438505Y0177911D02*
X0437749Y0177911D01*
X0445546Y0184305D02*
X0473300Y0184305D01*
X0473300Y0185903D02*
X0443947Y0185903D01*
X0442349Y0187502D02*
X0473300Y0187502D01*
X0473300Y0189100D02*
X0440750Y0189100D01*
X0439152Y0190699D02*
X0473300Y0190699D01*
X0473300Y0192297D02*
X0437553Y0192297D01*
X0435955Y0193896D02*
X0473300Y0193896D01*
X0473300Y0195494D02*
X0434356Y0195494D01*
X0432758Y0197093D02*
X0473300Y0197093D01*
X0473300Y0198691D02*
X0431159Y0198691D01*
X0429561Y0200290D02*
X0460456Y0200290D01*
X0460382Y0200321D02*
X0463248Y0199133D01*
X0466352Y0199133D01*
X0469218Y0200321D01*
X0471413Y0202515D01*
X0472600Y0205382D01*
X0472600Y0208485D01*
X0471413Y0211351D01*
X0469218Y0213546D01*
X0466352Y0214733D01*
X0463248Y0214733D01*
X0460382Y0213546D01*
X0458187Y0211351D01*
X0457000Y0208485D01*
X0457000Y0205382D01*
X0458187Y0202515D01*
X0460382Y0200321D01*
X0458814Y0201888D02*
X0430786Y0201888D01*
X0431413Y0202515D02*
X0432600Y0205382D01*
X0432600Y0208485D01*
X0431413Y0211351D01*
X0429218Y0213546D01*
X0426352Y0214733D01*
X0423248Y0214733D01*
X0420382Y0213546D01*
X0418343Y0211507D01*
X0383227Y0246624D01*
X0381891Y0247960D01*
X0380145Y0248683D01*
X0268081Y0248683D01*
X0266831Y0249933D01*
X0456348Y0249933D01*
X0455736Y0249321D01*
X0454288Y0245825D01*
X0454288Y0242041D01*
X0455736Y0238545D01*
X0458412Y0235869D01*
X0461908Y0234421D01*
X0465692Y0234421D01*
X0469188Y0235869D01*
X0471864Y0238545D01*
X0473300Y0242013D01*
X0473300Y0065854D01*
X0471864Y0069321D01*
X0469188Y0071997D01*
X0465692Y0073445D01*
X0461908Y0073445D01*
X0458412Y0071997D01*
X0455736Y0069321D01*
X0454288Y0065825D01*
X0454288Y0062041D01*
X0455736Y0058545D01*
X0456348Y0057933D01*
X0255010Y0057933D01*
X0255636Y0058192D01*
X0257541Y0060097D01*
X0258572Y0062586D01*
X0258572Y0065280D01*
X0257541Y0067769D01*
X0255636Y0069674D01*
X0253147Y0070705D01*
X0250453Y0070705D01*
X0247964Y0069674D01*
X0246800Y0068510D01*
X0246541Y0068769D01*
X0256905Y0079133D01*
X0312331Y0079133D01*
X0312331Y0079117D01*
X0317116Y0079117D01*
X0317116Y0078749D01*
X0312331Y0078749D01*
X0312331Y0078542D01*
X0312454Y0077770D01*
X0312696Y0077026D01*
X0313051Y0076329D01*
X0313510Y0075696D01*
X0314063Y0075143D01*
X0314071Y0075138D01*
X0313353Y0074841D01*
X0311392Y0072880D01*
X0310331Y0070319D01*
X0310331Y0067547D01*
X0311392Y0064986D01*
X0313353Y0063025D01*
X0315914Y0061965D01*
X0318686Y0061965D01*
X0321247Y0063025D01*
X0323208Y0064986D01*
X0324268Y0067547D01*
X0324268Y0070319D01*
X0323208Y0072880D01*
X0321247Y0074841D01*
X0320529Y0075138D01*
X0320537Y0075143D01*
X0321090Y0075696D01*
X0321549Y0076329D01*
X0321904Y0077026D01*
X0322146Y0077770D01*
X0322268Y0078542D01*
X0322268Y0078749D01*
X0317484Y0078749D01*
X0317484Y0079117D01*
X0322268Y0079117D01*
X0322268Y0079133D01*
X0342915Y0079133D01*
X0344606Y0079833D01*
X0370914Y0106141D01*
X0371392Y0104986D01*
X0372445Y0103933D01*
X0371392Y0102880D01*
X0370331Y0100319D01*
X0370331Y0097547D01*
X0371392Y0094986D01*
X0372445Y0093933D01*
X0371392Y0092880D01*
X0370331Y0090319D01*
X0370331Y0087547D01*
X0371392Y0084986D01*
X0372445Y0083933D01*
X0371392Y0082880D01*
X0370331Y0080319D01*
X0370331Y0077547D01*
X0371392Y0074986D01*
X0372445Y0073933D01*
X0371392Y0072880D01*
X0370331Y0070319D01*
X0370331Y0067547D01*
X0371392Y0064986D01*
X0373353Y0063025D01*
X0375914Y0061965D01*
X0378686Y0061965D01*
X0381247Y0063025D01*
X0383208Y0064986D01*
X0384268Y0067547D01*
X0384268Y0070319D01*
X0383208Y0072880D01*
X0382155Y0073933D01*
X0383208Y0074986D01*
X0384268Y0077547D01*
X0384268Y0080319D01*
X0383208Y0082880D01*
X0382155Y0083933D01*
X0383208Y0084986D01*
X0384268Y0087547D01*
X0384268Y0090319D01*
X0383208Y0092880D01*
X0382155Y0093933D01*
X0383208Y0094986D01*
X0384268Y0097547D01*
X0384268Y0100319D01*
X0383208Y0102880D01*
X0382155Y0103933D01*
X0383208Y0104986D01*
X0384268Y0107547D01*
X0384268Y0110319D01*
X0383208Y0112880D01*
X0382155Y0113933D01*
X0383208Y0114986D01*
X0384268Y0117547D01*
X0384268Y0120319D01*
X0383208Y0122880D01*
X0382155Y0123933D01*
X0383208Y0124986D01*
X0384268Y0127547D01*
X0384268Y0129533D01*
X0386623Y0129533D01*
X0387964Y0128192D01*
X0388971Y0127775D01*
X0388691Y0127573D01*
X0388160Y0127042D01*
X0387719Y0126434D01*
X0387378Y0125765D01*
X0387146Y0125050D01*
X0387028Y0124309D01*
X0387028Y0124019D01*
X0391714Y0124019D01*
X0391714Y0123847D01*
X0391714Y0120705D01*
X0391886Y0120705D01*
X0391886Y0123847D01*
X0391714Y0123847D01*
X0387028Y0123847D01*
X0387028Y0123558D01*
X0387146Y0122816D01*
X0387378Y0122101D01*
X0387719Y0121432D01*
X0388160Y0120825D01*
X0388691Y0120293D01*
X0388971Y0120091D01*
X0387964Y0119674D01*
X0386059Y0117769D01*
X0385028Y0115280D01*
X0385028Y0112586D01*
X0386059Y0110097D01*
X0387223Y0108933D01*
X0386059Y0107769D01*
X0385028Y0105280D01*
X0385028Y0102586D01*
X0386059Y0100097D01*
X0387223Y0098933D01*
X0386059Y0097769D01*
X0385028Y0095280D01*
X0385028Y0092586D01*
X0386059Y0090097D01*
X0387964Y0088192D01*
X0390453Y0087161D01*
X0393147Y0087161D01*
X0395636Y0088192D01*
X0395988Y0088545D01*
X0396763Y0087770D01*
X0398233Y0087161D01*
X0405367Y0087161D01*
X0406837Y0087770D01*
X0407963Y0088896D01*
X0408572Y0090366D01*
X0408572Y0097500D01*
X0407963Y0098971D01*
X0407188Y0099745D01*
X0407541Y0100097D01*
X0408572Y0102586D01*
X0408572Y0105280D01*
X0407541Y0107769D01*
X0406377Y0108933D01*
X0407541Y0110097D01*
X0408572Y0112586D01*
X0408572Y0115280D01*
X0408013Y0116629D01*
X0455091Y0163706D01*
X0455849Y0164465D01*
X0456564Y0164465D01*
X0458034Y0165074D01*
X0459160Y0166199D01*
X0459768Y0167669D01*
X0459768Y0175197D01*
X0459160Y0176667D01*
X0458034Y0177793D01*
X0456564Y0178402D01*
X0451449Y0178402D01*
X0429374Y0200476D01*
X0431413Y0202515D01*
X0431815Y0203487D02*
X0457785Y0203487D01*
X0457123Y0205085D02*
X0432477Y0205085D01*
X0432600Y0206684D02*
X0457000Y0206684D01*
X0457000Y0208282D02*
X0432600Y0208282D01*
X0432022Y0209881D02*
X0457578Y0209881D01*
X0458316Y0211479D02*
X0431284Y0211479D01*
X0429686Y0213078D02*
X0459914Y0213078D01*
X0463112Y0214677D02*
X0426488Y0214677D01*
X0423112Y0214677D02*
X0415174Y0214677D01*
X0413576Y0216275D02*
X0473300Y0216275D01*
X0473300Y0214677D02*
X0466488Y0214677D01*
X0469686Y0213078D02*
X0473300Y0213078D01*
X0473300Y0211479D02*
X0471284Y0211479D01*
X0472022Y0209881D02*
X0473300Y0209881D01*
X0473300Y0208282D02*
X0472600Y0208282D01*
X0472600Y0206684D02*
X0473300Y0206684D01*
X0473300Y0205085D02*
X0472477Y0205085D01*
X0471815Y0203487D02*
X0473300Y0203487D01*
X0473300Y0201888D02*
X0470786Y0201888D01*
X0469144Y0200290D02*
X0473300Y0200290D01*
X0473300Y0182706D02*
X0447144Y0182706D01*
X0448743Y0181108D02*
X0473300Y0181108D01*
X0473300Y0179509D02*
X0450341Y0179509D01*
X0457749Y0177911D02*
X0473300Y0177911D01*
X0473300Y0176312D02*
X0459307Y0176312D01*
X0459768Y0174714D02*
X0473300Y0174714D01*
X0473300Y0173115D02*
X0459768Y0173115D01*
X0459768Y0171517D02*
X0473300Y0171517D01*
X0473300Y0169918D02*
X0459768Y0169918D01*
X0459768Y0168320D02*
X0473300Y0168320D01*
X0473300Y0166721D02*
X0459376Y0166721D01*
X0458083Y0165123D02*
X0473300Y0165123D01*
X0473300Y0163524D02*
X0454909Y0163524D01*
X0453310Y0161926D02*
X0473300Y0161926D01*
X0473300Y0160327D02*
X0451712Y0160327D01*
X0450113Y0158729D02*
X0473300Y0158729D01*
X0473300Y0157130D02*
X0448515Y0157130D01*
X0446916Y0155532D02*
X0473300Y0155532D01*
X0473300Y0153933D02*
X0445318Y0153933D01*
X0443719Y0152335D02*
X0473300Y0152335D01*
X0473300Y0150736D02*
X0442120Y0150736D01*
X0440522Y0149138D02*
X0473300Y0149138D01*
X0473300Y0147539D02*
X0438923Y0147539D01*
X0437325Y0145941D02*
X0473300Y0145941D01*
X0473300Y0144342D02*
X0435726Y0144342D01*
X0434128Y0142743D02*
X0473300Y0142743D01*
X0473300Y0141145D02*
X0432529Y0141145D01*
X0430931Y0139546D02*
X0473300Y0139546D01*
X0473300Y0137948D02*
X0429332Y0137948D01*
X0427734Y0136349D02*
X0473300Y0136349D01*
X0473300Y0134751D02*
X0426135Y0134751D01*
X0424537Y0133152D02*
X0473300Y0133152D01*
X0473300Y0131554D02*
X0422938Y0131554D01*
X0421340Y0129955D02*
X0473300Y0129955D01*
X0473300Y0128357D02*
X0439485Y0128357D01*
X0440499Y0128085D02*
X0437320Y0128937D01*
X0434028Y0128937D01*
X0430849Y0128085D01*
X0427999Y0126439D01*
X0425672Y0124112D01*
X0424026Y0121262D01*
X0423174Y0118083D01*
X0423174Y0114791D01*
X0424026Y0111612D01*
X0424707Y0110433D01*
X0422217Y0110433D01*
X0419038Y0109581D01*
X0416188Y0107936D01*
X0413860Y0105608D01*
X0412215Y0102758D01*
X0411363Y0099579D01*
X0411363Y0096287D01*
X0412215Y0093108D01*
X0413860Y0090258D01*
X0416188Y0087931D01*
X0419038Y0086285D01*
X0422217Y0085433D01*
X0425509Y0085433D01*
X0428688Y0086285D01*
X0431538Y0087931D01*
X0433865Y0090258D01*
X0435511Y0093108D01*
X0436363Y0096287D01*
X0436363Y0099579D01*
X0435511Y0102758D01*
X0434830Y0103937D01*
X0437320Y0103937D01*
X0439257Y0104456D01*
X0438908Y0104019D01*
X0438281Y0103020D01*
X0437769Y0101958D01*
X0437380Y0100844D01*
X0437117Y0099695D01*
X0437009Y0098733D01*
X0446685Y0098733D01*
X0446685Y0097133D01*
X0448285Y0097133D01*
X0448285Y0087457D01*
X0449247Y0087565D01*
X0450396Y0087828D01*
X0451510Y0088217D01*
X0452572Y0088729D01*
X0453571Y0089356D01*
X0454493Y0090091D01*
X0455327Y0090925D01*
X0456062Y0091847D01*
X0456689Y0092846D01*
X0457201Y0093909D01*
X0457591Y0095022D01*
X0457853Y0096171D01*
X0457961Y0097133D01*
X0448285Y0097133D01*
X0448285Y0098733D01*
X0457961Y0098733D01*
X0457853Y0099695D01*
X0457591Y0100844D01*
X0457201Y0101958D01*
X0456689Y0103020D01*
X0456062Y0104019D01*
X0455327Y0104941D01*
X0454493Y0105775D01*
X0453571Y0106510D01*
X0452572Y0107137D01*
X0451510Y0107649D01*
X0450396Y0108039D01*
X0449247Y0108301D01*
X0448285Y0108409D01*
X0448285Y0098733D01*
X0446685Y0098733D01*
X0446685Y0108409D01*
X0445723Y0108301D01*
X0445066Y0108151D01*
X0445677Y0108762D01*
X0447322Y0111612D01*
X0448174Y0114791D01*
X0448174Y0118083D01*
X0447322Y0121262D01*
X0445677Y0124112D01*
X0443349Y0126439D01*
X0440499Y0128085D01*
X0442797Y0126758D02*
X0473300Y0126758D01*
X0473300Y0125160D02*
X0444629Y0125160D01*
X0445995Y0123561D02*
X0473300Y0123561D01*
X0473300Y0121963D02*
X0446917Y0121963D01*
X0447563Y0120364D02*
X0473300Y0120364D01*
X0473300Y0118766D02*
X0447991Y0118766D01*
X0448174Y0117167D02*
X0473300Y0117167D01*
X0473300Y0115569D02*
X0448174Y0115569D01*
X0447954Y0113970D02*
X0473300Y0113970D01*
X0473300Y0112372D02*
X0447526Y0112372D01*
X0446838Y0110773D02*
X0473300Y0110773D01*
X0473300Y0109175D02*
X0445915Y0109175D01*
X0446685Y0107576D02*
X0448285Y0107576D01*
X0448285Y0105978D02*
X0446685Y0105978D01*
X0446685Y0104379D02*
X0448285Y0104379D01*
X0448285Y0102781D02*
X0446685Y0102781D01*
X0446685Y0101182D02*
X0448285Y0101182D01*
X0448285Y0099584D02*
X0446685Y0099584D01*
X0446685Y0097985D02*
X0436363Y0097985D01*
X0437009Y0097133D02*
X0437117Y0096171D01*
X0437380Y0095022D01*
X0437769Y0093909D01*
X0438281Y0092846D01*
X0438908Y0091847D01*
X0439643Y0090925D01*
X0440477Y0090091D01*
X0441399Y0089356D01*
X0442398Y0088729D01*
X0443461Y0088217D01*
X0444574Y0087828D01*
X0445723Y0087565D01*
X0446685Y0087457D01*
X0446685Y0097133D01*
X0437009Y0097133D01*
X0437093Y0096387D02*
X0436363Y0096387D01*
X0435961Y0094788D02*
X0437461Y0094788D01*
X0438115Y0093190D02*
X0435533Y0093190D01*
X0434635Y0091591D02*
X0439113Y0091591D01*
X0440601Y0089993D02*
X0433600Y0089993D01*
X0432002Y0088394D02*
X0443093Y0088394D01*
X0446685Y0088394D02*
X0448285Y0088394D01*
X0448285Y0089993D02*
X0446685Y0089993D01*
X0446685Y0091591D02*
X0448285Y0091591D01*
X0448285Y0093190D02*
X0446685Y0093190D01*
X0446685Y0094788D02*
X0448285Y0094788D01*
X0448285Y0096387D02*
X0446685Y0096387D01*
X0448285Y0097985D02*
X0473300Y0097985D01*
X0473300Y0096387D02*
X0457877Y0096387D01*
X0457509Y0094788D02*
X0473300Y0094788D01*
X0473300Y0093190D02*
X0456855Y0093190D01*
X0455858Y0091591D02*
X0473300Y0091591D01*
X0473300Y0089993D02*
X0454369Y0089993D01*
X0451877Y0088394D02*
X0473300Y0088394D01*
X0473300Y0086796D02*
X0429572Y0086796D01*
X0418154Y0086796D02*
X0383957Y0086796D01*
X0384268Y0088394D02*
X0387762Y0088394D01*
X0386164Y0089993D02*
X0384268Y0089993D01*
X0383742Y0091591D02*
X0385440Y0091591D01*
X0385028Y0093190D02*
X0382898Y0093190D01*
X0383010Y0094788D02*
X0385028Y0094788D01*
X0385487Y0096387D02*
X0383788Y0096387D01*
X0384268Y0097985D02*
X0386276Y0097985D01*
X0386573Y0099584D02*
X0384268Y0099584D01*
X0383911Y0101182D02*
X0385610Y0101182D01*
X0385028Y0102781D02*
X0383249Y0102781D01*
X0382601Y0104379D02*
X0385028Y0104379D01*
X0385317Y0105978D02*
X0383619Y0105978D01*
X0384268Y0107576D02*
X0385979Y0107576D01*
X0386982Y0109175D02*
X0384268Y0109175D01*
X0384080Y0110773D02*
X0385779Y0110773D01*
X0385117Y0112372D02*
X0383418Y0112372D01*
X0382192Y0113970D02*
X0385028Y0113970D01*
X0385148Y0115569D02*
X0383449Y0115569D01*
X0384111Y0117167D02*
X0385810Y0117167D01*
X0387056Y0118766D02*
X0384268Y0118766D01*
X0384250Y0120364D02*
X0388621Y0120364D01*
X0387449Y0121963D02*
X0383588Y0121963D01*
X0382527Y0123561D02*
X0387028Y0123561D01*
X0387181Y0125160D02*
X0383280Y0125160D01*
X0383942Y0126758D02*
X0387955Y0126758D01*
X0387800Y0128357D02*
X0384268Y0128357D01*
X0391714Y0127161D02*
X0391714Y0124019D01*
X0391886Y0124019D01*
X0391886Y0127161D01*
X0391714Y0127161D01*
X0391714Y0126758D02*
X0391886Y0126758D01*
X0391886Y0125160D02*
X0391714Y0125160D01*
X0391714Y0123561D02*
X0391886Y0123561D01*
X0391886Y0121963D02*
X0391714Y0121963D01*
X0408552Y0117167D02*
X0423174Y0117167D01*
X0423174Y0115569D02*
X0408452Y0115569D01*
X0408572Y0113970D02*
X0423394Y0113970D01*
X0423822Y0112372D02*
X0408483Y0112372D01*
X0407821Y0110773D02*
X0424510Y0110773D01*
X0418334Y0109175D02*
X0406618Y0109175D01*
X0407621Y0107576D02*
X0415828Y0107576D01*
X0414230Y0105978D02*
X0408283Y0105978D01*
X0408572Y0104379D02*
X0413151Y0104379D01*
X0412228Y0102781D02*
X0408572Y0102781D01*
X0407990Y0101182D02*
X0411793Y0101182D01*
X0411364Y0099584D02*
X0407350Y0099584D01*
X0408371Y0097985D02*
X0411363Y0097985D01*
X0411363Y0096387D02*
X0408572Y0096387D01*
X0408572Y0094788D02*
X0411765Y0094788D01*
X0412193Y0093190D02*
X0408572Y0093190D01*
X0408572Y0091591D02*
X0413091Y0091591D01*
X0414126Y0089993D02*
X0408417Y0089993D01*
X0407461Y0088394D02*
X0415724Y0088394D01*
X0396139Y0088394D02*
X0395838Y0088394D01*
X0383295Y0085197D02*
X0473300Y0085197D01*
X0473300Y0083599D02*
X0382489Y0083599D01*
X0383572Y0082000D02*
X0473300Y0082000D01*
X0473300Y0080402D02*
X0384234Y0080402D01*
X0384268Y0078803D02*
X0473300Y0078803D01*
X0473300Y0077205D02*
X0384127Y0077205D01*
X0383465Y0075606D02*
X0473300Y0075606D01*
X0473300Y0074008D02*
X0382229Y0074008D01*
X0383403Y0072409D02*
X0459407Y0072409D01*
X0457226Y0070810D02*
X0384065Y0070810D01*
X0384268Y0069212D02*
X0455691Y0069212D01*
X0455029Y0067613D02*
X0384268Y0067613D01*
X0383634Y0066015D02*
X0454367Y0066015D01*
X0454288Y0064416D02*
X0382638Y0064416D01*
X0380746Y0062818D02*
X0454288Y0062818D01*
X0454629Y0061219D02*
X0258006Y0061219D01*
X0258572Y0062818D02*
X0313854Y0062818D01*
X0311962Y0064416D02*
X0258572Y0064416D01*
X0258267Y0066015D02*
X0310966Y0066015D01*
X0310331Y0067613D02*
X0257605Y0067613D01*
X0256098Y0069212D02*
X0310331Y0069212D01*
X0310535Y0070810D02*
X0248583Y0070810D01*
X0247502Y0069212D02*
X0246984Y0069212D01*
X0250181Y0072409D02*
X0311197Y0072409D01*
X0312519Y0074008D02*
X0251780Y0074008D01*
X0253378Y0075606D02*
X0313601Y0075606D01*
X0312637Y0077205D02*
X0254977Y0077205D01*
X0256575Y0078803D02*
X0317116Y0078803D01*
X0317484Y0078803D02*
X0370331Y0078803D01*
X0370366Y0080402D02*
X0345174Y0080402D01*
X0346772Y0082000D02*
X0371028Y0082000D01*
X0372111Y0083599D02*
X0348371Y0083599D01*
X0349969Y0085197D02*
X0371305Y0085197D01*
X0370643Y0086796D02*
X0351568Y0086796D01*
X0353166Y0088394D02*
X0370331Y0088394D01*
X0370331Y0089993D02*
X0354765Y0089993D01*
X0356363Y0091591D02*
X0370858Y0091591D01*
X0371702Y0093190D02*
X0357962Y0093190D01*
X0359560Y0094788D02*
X0371590Y0094788D01*
X0370812Y0096387D02*
X0361159Y0096387D01*
X0362757Y0097985D02*
X0370331Y0097985D01*
X0370331Y0099584D02*
X0364356Y0099584D01*
X0365954Y0101182D02*
X0370689Y0101182D01*
X0371351Y0102781D02*
X0367553Y0102781D01*
X0369152Y0104379D02*
X0371999Y0104379D01*
X0370981Y0105978D02*
X0370750Y0105978D01*
X0410150Y0118766D02*
X0423357Y0118766D01*
X0423785Y0120364D02*
X0411749Y0120364D01*
X0413347Y0121963D02*
X0424431Y0121963D01*
X0425354Y0123561D02*
X0414946Y0123561D01*
X0416544Y0125160D02*
X0426719Y0125160D01*
X0428551Y0126758D02*
X0418143Y0126758D01*
X0419741Y0128357D02*
X0431863Y0128357D01*
X0415897Y0137948D02*
X0407362Y0137948D01*
X0406990Y0139546D02*
X0417496Y0139546D01*
X0419094Y0141145D02*
X0407975Y0141145D01*
X0408572Y0142743D02*
X0420693Y0142743D01*
X0422291Y0144342D02*
X0408572Y0144342D01*
X0408298Y0145941D02*
X0423890Y0145941D01*
X0425488Y0147539D02*
X0407636Y0147539D01*
X0406581Y0149138D02*
X0427087Y0149138D01*
X0428685Y0150736D02*
X0407805Y0150736D01*
X0408467Y0152335D02*
X0430284Y0152335D01*
X0431883Y0153933D02*
X0408572Y0153933D01*
X0408467Y0155532D02*
X0433481Y0155532D01*
X0435080Y0157130D02*
X0407805Y0157130D01*
X0406581Y0158729D02*
X0436678Y0158729D01*
X0438277Y0160327D02*
X0407636Y0160327D01*
X0408298Y0161926D02*
X0439875Y0161926D01*
X0441474Y0163524D02*
X0408572Y0163524D01*
X0396800Y0178510D02*
X0396377Y0178933D01*
X0397541Y0180097D01*
X0397958Y0181104D01*
X0398160Y0180825D01*
X0398691Y0180293D01*
X0398971Y0180091D01*
X0397964Y0179674D01*
X0396800Y0178510D01*
X0396953Y0179509D02*
X0397800Y0179509D01*
X0416773Y0213078D02*
X0419914Y0213078D01*
X0411977Y0217874D02*
X0473300Y0217874D01*
X0473300Y0219472D02*
X0410379Y0219472D01*
X0408780Y0221071D02*
X0473300Y0221071D01*
X0473300Y0222669D02*
X0407181Y0222669D01*
X0405583Y0224268D02*
X0473300Y0224268D01*
X0473300Y0225866D02*
X0403984Y0225866D01*
X0402386Y0227465D02*
X0473300Y0227465D01*
X0473300Y0229063D02*
X0400787Y0229063D01*
X0399189Y0230662D02*
X0473300Y0230662D01*
X0473300Y0232260D02*
X0397590Y0232260D01*
X0395992Y0233859D02*
X0473300Y0233859D01*
X0473300Y0235457D02*
X0468193Y0235457D01*
X0470374Y0237056D02*
X0473300Y0237056D01*
X0473300Y0238654D02*
X0471909Y0238654D01*
X0472571Y0240253D02*
X0473300Y0240253D01*
X0473300Y0241851D02*
X0473233Y0241851D01*
X0459407Y0235457D02*
X0394393Y0235457D01*
X0392795Y0237056D02*
X0457226Y0237056D01*
X0455691Y0238654D02*
X0391196Y0238654D01*
X0389598Y0240253D02*
X0455029Y0240253D01*
X0454367Y0241851D02*
X0387999Y0241851D01*
X0386401Y0243450D02*
X0454288Y0243450D01*
X0454288Y0245048D02*
X0384802Y0245048D01*
X0383227Y0246624D02*
X0383227Y0246624D01*
X0383204Y0246647D02*
X0454629Y0246647D01*
X0455291Y0248245D02*
X0381202Y0248245D01*
X0377761Y0238654D02*
X0267552Y0238654D01*
X0265579Y0237056D02*
X0379360Y0237056D01*
X0380958Y0235457D02*
X0158711Y0235457D01*
X0158768Y0233859D02*
X0382557Y0233859D01*
X0384155Y0232260D02*
X0158650Y0232260D01*
X0157988Y0230662D02*
X0385754Y0230662D01*
X0387352Y0229063D02*
X0156785Y0229063D01*
X0157880Y0227465D02*
X0388951Y0227465D01*
X0390549Y0225866D02*
X0158542Y0225866D01*
X0158768Y0224268D02*
X0392148Y0224268D01*
X0393747Y0222669D02*
X0158768Y0222669D01*
X0158157Y0221071D02*
X0395345Y0221071D01*
X0456259Y0249844D02*
X0266920Y0249844D01*
X0246048Y0238654D02*
X0244215Y0238654D01*
X0241984Y0238654D02*
X0241616Y0238654D01*
X0241616Y0240253D02*
X0241984Y0240253D01*
X0241984Y0241851D02*
X0241616Y0241851D01*
X0241616Y0243450D02*
X0241984Y0243450D01*
X0239385Y0238654D02*
X0237552Y0238654D01*
X0235579Y0237056D02*
X0248021Y0237056D01*
X0255579Y0237056D02*
X0258021Y0237056D01*
X0228021Y0237056D02*
X0225579Y0237056D01*
X0218021Y0237056D02*
X0158049Y0237056D01*
X0156934Y0238654D02*
X0216048Y0238654D01*
X0214882Y0240253D02*
X0154753Y0240253D01*
X0148847Y0240253D02*
X0144753Y0240253D01*
X0140634Y0243450D02*
X0214000Y0243450D01*
X0214000Y0245048D02*
X0142233Y0245048D01*
X0139036Y0241851D02*
X0214220Y0241851D01*
X0148219Y0217874D02*
X0145381Y0217874D01*
X0138219Y0217874D02*
X0135381Y0217874D01*
X0128219Y0217874D02*
X0125381Y0217874D01*
X0118219Y0217874D02*
X0115381Y0217874D01*
X0108219Y0217874D02*
X0107334Y0217874D01*
X0096266Y0217874D02*
X0085658Y0217874D01*
X0087256Y0219472D02*
X0095120Y0219472D01*
X0094831Y0221071D02*
X0088855Y0221071D01*
X0090453Y0222669D02*
X0094831Y0222669D01*
X0094831Y0224268D02*
X0092052Y0224268D01*
X0093651Y0225866D02*
X0094831Y0225866D01*
X0085011Y0230662D02*
X0010300Y0230662D01*
X0010300Y0232260D02*
X0086610Y0232260D01*
X0088208Y0233859D02*
X0010300Y0233859D01*
X0010300Y0235457D02*
X0015407Y0235457D01*
X0013226Y0237056D02*
X0010300Y0237056D01*
X0010300Y0238654D02*
X0011691Y0238654D01*
X0011029Y0240253D02*
X0010300Y0240253D01*
X0010300Y0241851D02*
X0010367Y0241851D01*
X0024193Y0235457D02*
X0089807Y0235457D01*
X0091405Y0237056D02*
X0026374Y0237056D01*
X0027909Y0238654D02*
X0092503Y0238654D01*
X0094002Y0240253D02*
X0028571Y0240253D01*
X0029233Y0241851D02*
X0095601Y0241851D01*
X0097609Y0243450D02*
X0029312Y0243450D01*
X0029312Y0245048D02*
X0128798Y0245048D01*
X0130396Y0246647D02*
X0028971Y0246647D01*
X0028309Y0248245D02*
X0131995Y0248245D01*
X0133593Y0249844D02*
X0027341Y0249844D01*
X0010300Y0229063D02*
X0083413Y0229063D01*
X0081814Y0227465D02*
X0010300Y0227465D01*
X0010300Y0225866D02*
X0080216Y0225866D01*
X0078617Y0224268D02*
X0010300Y0224268D01*
X0010300Y0222669D02*
X0077018Y0222669D01*
X0075420Y0221071D02*
X0010300Y0221071D01*
X0010300Y0219472D02*
X0073821Y0219472D01*
X0072223Y0217874D02*
X0010300Y0217874D01*
X0010300Y0216275D02*
X0033730Y0216275D01*
X0034863Y0216744D02*
X0032301Y0215683D01*
X0030341Y0213723D01*
X0029280Y0211162D01*
X0029280Y0206214D01*
X0028707Y0206506D01*
X0027963Y0206748D01*
X0027191Y0206870D01*
X0026984Y0206870D01*
X0026984Y0199117D01*
X0026616Y0199117D01*
X0026616Y0198749D01*
X0026984Y0198749D01*
X0026984Y0190996D01*
X0027191Y0190996D01*
X0027963Y0191118D01*
X0028707Y0191360D01*
X0029404Y0191715D01*
X0030037Y0192175D01*
X0030590Y0192728D01*
X0031049Y0193360D01*
X0031404Y0194057D01*
X0031646Y0194801D01*
X0031768Y0195574D01*
X0031768Y0198464D01*
X0032301Y0197931D01*
X0034863Y0196870D01*
X0037635Y0196870D01*
X0040196Y0197931D01*
X0042156Y0199891D01*
X0043217Y0202452D01*
X0043217Y0211162D01*
X0042156Y0213723D01*
X0040196Y0215683D01*
X0037635Y0216744D01*
X0034863Y0216744D01*
X0038767Y0216275D02*
X0055384Y0216275D01*
X0052948Y0214677D02*
X0041203Y0214677D01*
X0042424Y0213078D02*
X0051728Y0213078D01*
X0051065Y0211479D02*
X0043086Y0211479D01*
X0043217Y0209881D02*
X0050934Y0209881D01*
X0050934Y0208282D02*
X0043217Y0208282D01*
X0043217Y0206684D02*
X0050934Y0206684D01*
X0050934Y0205085D02*
X0043217Y0205085D01*
X0043217Y0203487D02*
X0050934Y0203487D01*
X0051167Y0201888D02*
X0042984Y0201888D01*
X0042322Y0200290D02*
X0051830Y0200290D01*
X0053041Y0198691D02*
X0040957Y0198691D01*
X0038173Y0197093D02*
X0052339Y0197093D01*
X0052250Y0195494D02*
X0031756Y0195494D01*
X0031768Y0197093D02*
X0034325Y0197093D01*
X0031322Y0193896D02*
X0052250Y0193896D01*
X0052250Y0192297D02*
X0030159Y0192297D01*
X0026984Y0192297D02*
X0026616Y0192297D01*
X0026616Y0190996D02*
X0026616Y0198749D01*
X0021831Y0198749D01*
X0021831Y0195574D01*
X0021954Y0194801D01*
X0022196Y0194057D01*
X0022551Y0193360D01*
X0023010Y0192728D01*
X0023563Y0192175D01*
X0024196Y0191715D01*
X0024893Y0191360D01*
X0025637Y0191118D01*
X0026409Y0190996D01*
X0026616Y0190996D01*
X0026616Y0193896D02*
X0026984Y0193896D01*
X0026984Y0195494D02*
X0026616Y0195494D01*
X0026616Y0197093D02*
X0026984Y0197093D01*
X0026984Y0198691D02*
X0026616Y0198691D01*
X0026616Y0199117D02*
X0021831Y0199117D01*
X0021831Y0202293D01*
X0021954Y0203065D01*
X0022196Y0203809D01*
X0022551Y0204506D01*
X0023010Y0205138D01*
X0023563Y0205691D01*
X0024196Y0206151D01*
X0024893Y0206506D01*
X0025637Y0206748D01*
X0026409Y0206870D01*
X0026616Y0206870D01*
X0026616Y0199117D01*
X0026616Y0200290D02*
X0026984Y0200290D01*
X0026984Y0201888D02*
X0026616Y0201888D01*
X0026616Y0203487D02*
X0026984Y0203487D01*
X0026984Y0205085D02*
X0026616Y0205085D01*
X0026616Y0206684D02*
X0026984Y0206684D01*
X0028160Y0206684D02*
X0029280Y0206684D01*
X0029280Y0208282D02*
X0010300Y0208282D01*
X0010300Y0206684D02*
X0025440Y0206684D01*
X0022972Y0205085D02*
X0010300Y0205085D01*
X0010300Y0203487D02*
X0022091Y0203487D01*
X0021831Y0201888D02*
X0010300Y0201888D01*
X0010300Y0200290D02*
X0021831Y0200290D01*
X0021831Y0198691D02*
X0010300Y0198691D01*
X0010300Y0197093D02*
X0021831Y0197093D01*
X0021844Y0195494D02*
X0010300Y0195494D01*
X0010300Y0193896D02*
X0022278Y0193896D01*
X0023441Y0192297D02*
X0010300Y0192297D01*
X0010300Y0190699D02*
X0052250Y0190699D01*
X0052250Y0189100D02*
X0010300Y0189100D01*
X0010300Y0187502D02*
X0052250Y0187502D01*
X0052250Y0185903D02*
X0010300Y0185903D01*
X0010300Y0184305D02*
X0052250Y0184305D01*
X0052250Y0182706D02*
X0010300Y0182706D01*
X0010300Y0181108D02*
X0052250Y0181108D01*
X0052250Y0179509D02*
X0010300Y0179509D01*
X0010300Y0177911D02*
X0052250Y0177911D01*
X0052250Y0176312D02*
X0010300Y0176312D01*
X0010300Y0174714D02*
X0052250Y0174714D01*
X0052250Y0173115D02*
X0010300Y0173115D01*
X0010300Y0171517D02*
X0052250Y0171517D01*
X0052250Y0169918D02*
X0010300Y0169918D01*
X0010300Y0168320D02*
X0052250Y0168320D01*
X0052250Y0166721D02*
X0010300Y0166721D01*
X0010300Y0165123D02*
X0052250Y0165123D01*
X0052250Y0163524D02*
X0010300Y0163524D01*
X0010300Y0161926D02*
X0052250Y0161926D01*
X0052250Y0160327D02*
X0010300Y0160327D01*
X0010300Y0158729D02*
X0052250Y0158729D01*
X0052250Y0157130D02*
X0010300Y0157130D01*
X0010300Y0155532D02*
X0052250Y0155532D01*
X0052250Y0153933D02*
X0010300Y0153933D01*
X0010300Y0152335D02*
X0052250Y0152335D01*
X0052250Y0150736D02*
X0010300Y0150736D01*
X0010300Y0149138D02*
X0050974Y0149138D01*
X0049851Y0147539D02*
X0010300Y0147539D01*
X0010300Y0145941D02*
X0049189Y0145941D01*
X0049000Y0144342D02*
X0010300Y0144342D01*
X0010300Y0142743D02*
X0049000Y0142743D01*
X0049512Y0141145D02*
X0010300Y0141145D01*
X0010300Y0139546D02*
X0050174Y0139546D01*
X0051754Y0137948D02*
X0010300Y0137948D01*
X0010300Y0136349D02*
X0054726Y0136349D01*
X0064943Y0113970D02*
X0081616Y0113970D01*
X0081984Y0113970D02*
X0149831Y0113970D01*
X0149904Y0112372D02*
X0086517Y0112372D01*
X0085646Y0110773D02*
X0150566Y0110773D01*
X0151703Y0109175D02*
X0086413Y0109175D01*
X0087834Y0107576D02*
X0150766Y0107576D01*
X0150104Y0105978D02*
X0088496Y0105978D01*
X0088768Y0104379D02*
X0149831Y0104379D01*
X0149831Y0102781D02*
X0088768Y0102781D01*
X0088203Y0101182D02*
X0150397Y0101182D01*
X0151294Y0099584D02*
X0087306Y0099584D01*
X0085650Y0097985D02*
X0152950Y0097985D01*
X0160650Y0097985D02*
X0242135Y0097985D01*
X0243733Y0099584D02*
X0162306Y0099584D01*
X0163203Y0101182D02*
X0245332Y0101182D01*
X0246930Y0102781D02*
X0163768Y0102781D01*
X0163768Y0104379D02*
X0248529Y0104379D01*
X0250127Y0105978D02*
X0163496Y0105978D01*
X0162834Y0107576D02*
X0251726Y0107576D01*
X0253324Y0109175D02*
X0161897Y0109175D01*
X0163034Y0110773D02*
X0254923Y0110773D01*
X0256521Y0112372D02*
X0163696Y0112372D01*
X0163768Y0113970D02*
X0285028Y0113970D01*
X0285148Y0115569D02*
X0163665Y0115569D01*
X0163003Y0117167D02*
X0285260Y0117167D01*
X0283662Y0118766D02*
X0161822Y0118766D01*
X0162864Y0120364D02*
X0282063Y0120364D01*
X0280465Y0121963D02*
X0163527Y0121963D01*
X0163768Y0123561D02*
X0278866Y0123561D01*
X0277268Y0125160D02*
X0163768Y0125160D01*
X0163172Y0126758D02*
X0275669Y0126758D01*
X0274071Y0128357D02*
X0162231Y0128357D01*
X0162677Y0129955D02*
X0272472Y0129955D01*
X0270874Y0131554D02*
X0163357Y0131554D01*
X0163768Y0133152D02*
X0269275Y0133152D01*
X0285028Y0165123D02*
X0158067Y0165123D01*
X0157405Y0166721D02*
X0285625Y0166721D01*
X0286610Y0168320D02*
X0155865Y0168320D01*
X0153671Y0169918D02*
X0286238Y0169918D01*
X0286201Y0177911D02*
X0145470Y0177911D01*
X0147231Y0179509D02*
X0149538Y0179509D01*
X0151616Y0179509D02*
X0151984Y0179509D01*
X0151984Y0181108D02*
X0151616Y0181108D01*
X0154062Y0179509D02*
X0287800Y0179509D01*
X0287955Y0181108D02*
X0155889Y0181108D01*
X0156626Y0182706D02*
X0287181Y0182706D01*
X0287028Y0184305D02*
X0156768Y0184305D01*
X0156372Y0185903D02*
X0287449Y0185903D01*
X0288621Y0187502D02*
X0155800Y0187502D01*
X0156822Y0189100D02*
X0297391Y0189100D01*
X0295949Y0187502D02*
X0294979Y0187502D01*
X0291886Y0187502D02*
X0291714Y0187502D01*
X0291714Y0185903D02*
X0291886Y0185903D01*
X0291886Y0184305D02*
X0291714Y0184305D01*
X0300439Y0190699D02*
X0158003Y0190699D01*
X0158665Y0192297D02*
X0302550Y0192297D01*
X0302550Y0193896D02*
X0158768Y0193896D01*
X0158696Y0195494D02*
X0302550Y0195494D01*
X0302550Y0197093D02*
X0158034Y0197093D01*
X0156897Y0198691D02*
X0302550Y0198691D01*
X0408129Y0136349D02*
X0414299Y0136349D01*
X0412700Y0134751D02*
X0408572Y0134751D01*
X0408572Y0133152D02*
X0411102Y0133152D01*
X0409503Y0131554D02*
X0408144Y0131554D01*
X0407905Y0129955D02*
X0407399Y0129955D01*
X0451661Y0107576D02*
X0473300Y0107576D01*
X0473300Y0105978D02*
X0454238Y0105978D01*
X0455774Y0104379D02*
X0473300Y0104379D01*
X0473300Y0102781D02*
X0456805Y0102781D01*
X0457472Y0101182D02*
X0473300Y0101182D01*
X0473300Y0099584D02*
X0457866Y0099584D01*
X0439196Y0104379D02*
X0438970Y0104379D01*
X0438165Y0102781D02*
X0435498Y0102781D01*
X0435933Y0101182D02*
X0437498Y0101182D01*
X0437105Y0099584D02*
X0436362Y0099584D01*
X0468193Y0072409D02*
X0473300Y0072409D01*
X0473300Y0070810D02*
X0470374Y0070810D01*
X0471909Y0069212D02*
X0473300Y0069212D01*
X0473300Y0067613D02*
X0472571Y0067613D01*
X0473233Y0066015D02*
X0473300Y0066015D01*
X0456259Y0058022D02*
X0255226Y0058022D01*
X0257064Y0059621D02*
X0455291Y0059621D01*
X0373854Y0062818D02*
X0320746Y0062818D01*
X0322638Y0064416D02*
X0371962Y0064416D01*
X0370966Y0066015D02*
X0323634Y0066015D01*
X0324268Y0067613D02*
X0370331Y0067613D01*
X0370331Y0069212D02*
X0324268Y0069212D01*
X0324065Y0070810D02*
X0370535Y0070810D01*
X0371197Y0072409D02*
X0323403Y0072409D01*
X0322080Y0074008D02*
X0372371Y0074008D01*
X0371135Y0075606D02*
X0320999Y0075606D01*
X0321963Y0077205D02*
X0370473Y0077205D01*
X0240536Y0096387D02*
X0058964Y0096387D01*
X0061883Y0097985D02*
X0077950Y0097985D01*
X0076294Y0099584D02*
X0063441Y0099584D01*
X0064103Y0101182D02*
X0075397Y0101182D01*
X0074831Y0102781D02*
X0064600Y0102781D01*
X0064600Y0104379D02*
X0074831Y0104379D01*
X0075104Y0105978D02*
X0064396Y0105978D01*
X0063734Y0107576D02*
X0075766Y0107576D01*
X0077187Y0109175D02*
X0062589Y0109175D01*
X0061746Y0110773D02*
X0077954Y0110773D01*
X0077083Y0112372D02*
X0063344Y0112372D01*
X0050159Y0099584D02*
X0036004Y0099584D01*
X0024193Y0072409D02*
X0216558Y0072409D01*
X0214960Y0070810D02*
X0026374Y0070810D01*
X0111320Y0083599D02*
X0112280Y0083599D01*
X0121320Y0083599D02*
X0122280Y0083599D01*
X0131320Y0083599D02*
X0132280Y0083599D01*
X0141320Y0083599D02*
X0227748Y0083599D01*
X0229347Y0085197D02*
X0142795Y0085197D01*
X0143457Y0086796D02*
X0230945Y0086796D01*
X0232544Y0088394D02*
X0143768Y0088394D01*
X0143768Y0089993D02*
X0234142Y0089993D01*
X0235741Y0091591D02*
X0143242Y0091591D01*
X0142398Y0093190D02*
X0237339Y0093190D01*
X0238938Y0094788D02*
X0140800Y0094788D01*
X0132800Y0094788D02*
X0130800Y0094788D01*
X0122800Y0094788D02*
X0120800Y0094788D01*
X0112800Y0094788D02*
X0110800Y0094788D01*
X0145141Y0115569D02*
X0149935Y0115569D01*
X0150597Y0117167D02*
X0146740Y0117167D01*
X0148338Y0118766D02*
X0151778Y0118766D01*
X0150736Y0120364D02*
X0149937Y0120364D01*
X0138130Y0177911D02*
X0135470Y0177911D01*
X0128130Y0177911D02*
X0125470Y0177911D01*
X0118130Y0177911D02*
X0115470Y0177911D01*
X0108130Y0177911D02*
X0107372Y0177911D01*
X0067427Y0213078D02*
X0064077Y0213078D01*
X0064739Y0211479D02*
X0065829Y0211479D01*
X0062856Y0214677D02*
X0069026Y0214677D01*
X0070624Y0216275D02*
X0060421Y0216275D01*
X0031295Y0214677D02*
X0010300Y0214677D01*
X0010300Y0213078D02*
X0030074Y0213078D01*
X0029412Y0211479D02*
X0010300Y0211479D01*
X0010300Y0209881D02*
X0029280Y0209881D01*
X0118391Y0243450D02*
X0127199Y0243450D01*
X0125601Y0241851D02*
X0120399Y0241851D01*
X0135839Y0238654D02*
X0136666Y0238654D01*
X0137437Y0240253D02*
X0138847Y0240253D01*
M02*
